<?xml version="1.0" encoding="utf-8"?>
<!-- Generator: Adobe Illustrator 23.1.0, SVG Export Plug-In . SVG Version: 6.00 Build 0)  -->
<svg version="1.1" id="Calque_1" xmlns="http://www.w3.org/2000/svg" xmlns:xlink="http://www.w3.org/1999/xlink" x="0px" y="0px"
	 viewBox="0 0 481.89 85.04" style="enable-background:new 0 0 481.89 85.04;" xml:space="preserve">
<style type="text/css">
	.st0{stroke:#000000;stroke-width:0.35;stroke-miterlimit:10;}
</style>
<g>
	<path d="M107.25,18.69h4.27l-0.25,1.28h-2.82l-0.22,1.17h1.9l-0.24,1.28h-1.9l-0.56,2.85h-1.46L107.25,18.69z"/>
	<path d="M113,18.69h4.4l-0.25,1.28h-2.94l-0.22,1.17h2l-0.24,1.28h-2l-0.31,1.57h3.14l-0.25,1.28h-4.6L113,18.69z"/>
	<path d="M118.62,23.32c0.05,0.11,0.12,0.22,0.21,0.33c0.09,0.11,0.17,0.21,0.26,0.29c0.21,0.18,0.46,0.27,0.74,0.27
		c0.16,0,0.29-0.02,0.39-0.06c0.1-0.04,0.19-0.09,0.25-0.15c0.08-0.07,0.13-0.16,0.17-0.25s0.05-0.18,0.05-0.27
		c0-0.1-0.02-0.18-0.05-0.26c-0.03-0.07-0.08-0.15-0.15-0.21c-0.04-0.05-0.1-0.1-0.18-0.17c-0.08-0.06-0.18-0.14-0.32-0.23
		l-0.54-0.35c-0.17-0.11-0.33-0.23-0.46-0.34c-0.14-0.11-0.25-0.23-0.33-0.35s-0.15-0.25-0.2-0.4c-0.05-0.15-0.07-0.31-0.07-0.5
		c0-0.31,0.05-0.59,0.16-0.85c0.11-0.26,0.25-0.48,0.44-0.67c0.15-0.15,0.36-0.29,0.63-0.43c0.27-0.13,0.61-0.2,1.04-0.2
		c0.27,0,0.51,0.03,0.73,0.1c0.22,0.07,0.42,0.16,0.62,0.29c0.19,0.12,0.34,0.25,0.46,0.38s0.21,0.27,0.28,0.39l-1.12,0.75
		c-0.09-0.13-0.18-0.23-0.26-0.31s-0.15-0.14-0.19-0.17c-0.11-0.09-0.23-0.16-0.33-0.2c-0.11-0.04-0.23-0.06-0.38-0.06
		c-0.16,0-0.28,0.02-0.37,0.07s-0.16,0.1-0.21,0.15c-0.11,0.12-0.16,0.26-0.16,0.43c0,0.17,0.06,0.32,0.19,0.45
		c0.05,0.05,0.12,0.11,0.18,0.16s0.15,0.1,0.23,0.16l0.6,0.4c0.1,0.07,0.22,0.16,0.36,0.27c0.14,0.11,0.25,0.21,0.33,0.3
		c0.17,0.17,0.3,0.36,0.37,0.56c0.07,0.2,0.11,0.42,0.11,0.66c0,0.34-0.06,0.62-0.18,0.86c-0.12,0.24-0.26,0.44-0.42,0.6
		c-0.18,0.18-0.41,0.34-0.7,0.47s-0.64,0.2-1.07,0.2c-0.26,0-0.51-0.03-0.75-0.1c-0.23-0.07-0.46-0.17-0.67-0.32
		c-0.12-0.08-0.23-0.17-0.32-0.27c-0.1-0.1-0.18-0.19-0.24-0.27c-0.07-0.09-0.12-0.17-0.16-0.23c-0.04-0.07-0.07-0.12-0.09-0.16
		L118.62,23.32z"/>
	<path d="M125.2,19.97h-1.67l0.25-1.28h4.79l-0.25,1.28h-1.67l-1.03,5.3h-1.46L125.2,19.97z"/>
	<path d="M127.8,24.65h0.75l1.05-5.38h-0.75l0.11-0.58h2.96l-0.11,0.58h-0.76l-1.05,5.38h0.76l-0.12,0.62h-2.96L127.8,24.65z"/>
	<path d="M133.09,25.27l-0.68-6.58h1.41l0.39,4.6l2.16-4.6h1.5l-3.24,6.58H133.09z"/>
	<path d="M141.07,23.95h-1.98l-0.59,1.31h-1.44l3.17-6.58h1.72l0.61,6.58h-1.39L141.07,23.95z M141.02,22.83l-0.13-2.97l-1.29,2.97
		H141.02z"/>
	<path d="M144.92,18.69h1.46l-1.03,5.3h2.88l-0.25,1.28h-4.34L144.92,18.69z"/>
	<path d="M150.46,24.65h0.75l1.05-5.38h-0.75l0.11-0.58h2.96l-0.11,0.58h-0.76l-1.05,5.38h0.76l-0.12,0.62h-2.96L150.46,24.65z"/>
	<path d="M155.68,18.69h1.29l1.4,4l0.75-4h1.27l-1.28,6.58h-1.08l-1.51-4.45l-0.84,4.45h-1.27L155.68,18.69z"/>
	<path d="M162.76,19.97h-1.67l0.25-1.28h4.79l-0.25,1.28h-1.67l-1.03,5.3h-1.46L162.76,19.97z"/>
	<path d="M167.09,18.69h4.4l-0.25,1.28h-2.94l-0.22,1.17h2l-0.24,1.28h-2l-0.31,1.57h3.14l-0.25,1.28h-4.6L167.09,18.69z"/>
	<path d="M174.57,18.69c0.17,0,0.36,0,0.55,0.01c0.19,0.01,0.39,0.03,0.58,0.06c0.19,0.04,0.38,0.09,0.56,0.17
		c0.18,0.08,0.33,0.18,0.46,0.32c0.11,0.12,0.21,0.28,0.3,0.49c0.09,0.2,0.13,0.46,0.13,0.77c0,0.32-0.04,0.6-0.13,0.82
		c-0.09,0.22-0.2,0.41-0.34,0.54c-0.14,0.14-0.32,0.26-0.54,0.36c-0.22,0.1-0.43,0.16-0.63,0.19l1.05,2.85h-1.63l-0.84-2.68h-0.43
		l-0.52,2.68h-1.46l1.28-6.58H174.57z M173.87,21.54h0.34c0.25,0,0.49-0.01,0.72-0.04c0.22-0.02,0.4-0.11,0.54-0.24
		c0.08-0.08,0.14-0.19,0.17-0.31c0.04-0.12,0.05-0.25,0.05-0.39c0-0.07-0.01-0.16-0.03-0.27c-0.02-0.11-0.07-0.21-0.16-0.29
		c-0.1-0.1-0.24-0.16-0.4-0.18c-0.17-0.01-0.35-0.02-0.54-0.02h-0.34L173.87,21.54z"/>
	<path d="M178.87,18.69h1.29l1.4,4l0.75-4h1.27l-1.28,6.58h-1.08l-1.51-4.45l-0.84,4.45h-1.27L178.87,18.69z"/>
	<path d="M187.4,23.95h-1.98l-0.59,1.31h-1.44l3.17-6.58h1.72l0.61,6.58h-1.39L187.4,23.95z M187.35,22.83l-0.13-2.97l-1.29,2.97
		H187.35z"/>
	<path d="M191.96,19.97h-1.67l0.25-1.28h4.79l-0.25,1.28h-1.67l-1.03,5.3h-1.46L191.96,19.97z"/>
	<path d="M194.57,24.65h0.75l1.05-5.38h-0.75l0.11-0.58h2.96l-0.11,0.58h-0.76l-1.05,5.38h0.76l-0.12,0.62h-2.96L194.57,24.65z"/>
	<path d="M199.16,21.4c0.05-0.24,0.1-0.47,0.15-0.68s0.12-0.41,0.19-0.6c0.07-0.19,0.16-0.36,0.25-0.53
		c0.1-0.16,0.21-0.31,0.34-0.43c0.22-0.21,0.47-0.37,0.77-0.48c0.3-0.11,0.62-0.16,0.97-0.16c0.35,0,0.65,0.05,0.88,0.16
		c0.23,0.11,0.42,0.23,0.57,0.38c0.18,0.19,0.3,0.38,0.36,0.59c0.06,0.21,0.08,0.43,0.08,0.65c0,0.23-0.02,0.43-0.05,0.6
		c-0.03,0.17-0.06,0.34-0.09,0.5l-0.23,1.16c-0.09,0.46-0.2,0.87-0.32,1.24s-0.31,0.69-0.55,0.94c-0.07,0.07-0.16,0.15-0.26,0.23
		s-0.22,0.16-0.37,0.22c-0.14,0.07-0.31,0.12-0.5,0.17c-0.19,0.04-0.4,0.07-0.63,0.07c-0.2,0-0.38-0.02-0.53-0.05
		c-0.16-0.03-0.29-0.07-0.41-0.12s-0.22-0.1-0.3-0.16c-0.08-0.06-0.15-0.11-0.19-0.16c-0.13-0.12-0.24-0.29-0.34-0.51
		c-0.1-0.22-0.15-0.51-0.15-0.86c0-0.1,0.01-0.23,0.03-0.38c0.02-0.15,0.05-0.36,0.1-0.62L199.16,21.4z M202.15,21.15
		c0.01-0.03,0.02-0.08,0.03-0.14c0.01-0.06,0.02-0.13,0.03-0.2s0.02-0.14,0.03-0.22s0.01-0.13,0.01-0.18c0-0.12-0.02-0.22-0.05-0.29
		s-0.07-0.13-0.12-0.18c-0.06-0.05-0.13-0.09-0.21-0.12c-0.08-0.02-0.16-0.04-0.23-0.04c-0.2,0-0.38,0.06-0.52,0.19
		c-0.1,0.1-0.18,0.24-0.25,0.42c-0.06,0.18-0.13,0.43-0.19,0.75l-0.32,1.65c-0.03,0.14-0.05,0.27-0.07,0.39
		c-0.02,0.12-0.03,0.24-0.03,0.35c0,0.05,0.01,0.13,0.02,0.22c0.01,0.09,0.06,0.17,0.13,0.24c0.11,0.11,0.27,0.16,0.5,0.16
		c0.08,0,0.17-0.01,0.27-0.04s0.18-0.08,0.27-0.17c0.09-0.1,0.16-0.24,0.22-0.42c0.06-0.19,0.12-0.43,0.18-0.73L202.15,21.15z"/>
	<path d="M205.66,18.69h1.29l1.4,4l0.75-4h1.27l-1.28,6.58H208l-1.51-4.45l-0.84,4.45h-1.27L205.66,18.69z"/>
	<path d="M214.19,23.95h-1.98l-0.59,1.31h-1.44l3.17-6.58h1.72l0.61,6.58h-1.39L214.19,23.95z M214.13,22.83l-0.13-2.97l-1.29,2.97
		H214.13z"/>
	<path d="M218.03,18.69h1.46l-1.03,5.3h2.88l-0.25,1.28h-4.34L218.03,18.69z"/>
	<path d="M227.11,18.69c0.37,0,0.7,0.04,1,0.1c0.29,0.07,0.54,0.21,0.76,0.42c0.11,0.11,0.2,0.22,0.26,0.34
		c0.07,0.12,0.12,0.24,0.15,0.36s0.06,0.24,0.07,0.36s0.02,0.22,0.02,0.32c0,0.1,0,0.21-0.01,0.33c-0.01,0.12-0.02,0.24-0.04,0.36
		c-0.02,0.12-0.03,0.25-0.05,0.36c-0.02,0.12-0.04,0.23-0.05,0.32l-0.14,0.72c-0.03,0.15-0.06,0.31-0.1,0.48s-0.08,0.34-0.14,0.51
		c-0.06,0.17-0.13,0.34-0.22,0.5c-0.09,0.16-0.2,0.3-0.33,0.44c-0.14,0.14-0.3,0.26-0.48,0.35s-0.36,0.15-0.55,0.2
		s-0.39,0.08-0.59,0.09s-0.4,0.02-0.6,0.02h-2.07l1.28-6.58H227.11z M226.03,23.99c0.2,0,0.41-0.02,0.61-0.05s0.38-0.13,0.54-0.3
		c0.14-0.14,0.24-0.31,0.3-0.51s0.11-0.42,0.16-0.65l0.12-0.58c0.06-0.29,0.1-0.5,0.11-0.65c0.01-0.15,0.02-0.26,0.02-0.34
		c0-0.1-0.01-0.22-0.04-0.34s-0.09-0.24-0.19-0.34c-0.11-0.11-0.25-0.19-0.41-0.22s-0.31-0.04-0.45-0.04h-0.31l-0.77,4.02H226.03z"
		/>
	<path d="M231.21,18.69h4.4l-0.25,1.28h-2.94l-0.22,1.17h2l-0.24,1.28h-2l-0.31,1.57h3.14l-0.25,1.28h-4.6L231.21,18.69z"/>
	<path d="M238.75,23.29c-0.01,0.07-0.03,0.16-0.04,0.28c-0.02,0.12-0.02,0.2-0.02,0.25c0,0.04,0.01,0.08,0.02,0.14
		c0.01,0.06,0.04,0.11,0.09,0.16c0.06,0.07,0.16,0.11,0.29,0.11c0.08,0,0.15-0.01,0.2-0.04c0.05-0.02,0.09-0.05,0.12-0.08
		c0.08-0.08,0.14-0.18,0.17-0.32s0.06-0.27,0.09-0.41l0.91-4.69h1.46l-0.95,4.86c-0.05,0.23-0.11,0.47-0.2,0.72
		c-0.08,0.25-0.21,0.47-0.39,0.66c-0.21,0.22-0.44,0.36-0.68,0.42c-0.25,0.06-0.49,0.09-0.74,0.09c-0.09,0-0.19,0-0.29-0.01
		c-0.11-0.01-0.21-0.02-0.32-0.05c-0.11-0.03-0.21-0.07-0.32-0.12c-0.1-0.05-0.2-0.12-0.29-0.21c-0.08-0.08-0.17-0.21-0.24-0.37
		s-0.12-0.38-0.12-0.65c0-0.14,0.01-0.27,0.03-0.39c0.02-0.12,0.04-0.23,0.07-0.35l0.03-0.13h1.15L238.75,23.29z"/>
	<path d="M245.79,23.95h-1.98l-0.59,1.31h-1.44l3.17-6.58h1.72l0.61,6.58h-1.39L245.79,23.95z M245.74,22.83l-0.13-2.97l-1.29,2.97
		H245.74z"/>
	<path d="M251.24,18.69c0.17,0,0.36,0,0.55,0.01c0.19,0.01,0.39,0.03,0.58,0.06c0.19,0.04,0.38,0.09,0.56,0.17
		c0.18,0.08,0.33,0.18,0.46,0.32c0.11,0.12,0.21,0.28,0.3,0.49c0.09,0.2,0.13,0.46,0.13,0.77c0,0.32-0.04,0.6-0.13,0.82
		c-0.09,0.22-0.2,0.41-0.34,0.54c-0.14,0.14-0.32,0.26-0.54,0.36c-0.22,0.1-0.43,0.16-0.63,0.19l1.05,2.85h-1.63l-0.84-2.68h-0.43
		l-0.52,2.68h-1.46l1.28-6.58H251.24z M250.54,21.54h0.34c0.25,0,0.49-0.01,0.72-0.04c0.22-0.02,0.4-0.11,0.54-0.24
		c0.08-0.08,0.14-0.19,0.17-0.31c0.04-0.12,0.05-0.25,0.05-0.39c0-0.07-0.01-0.16-0.03-0.27c-0.02-0.11-0.07-0.21-0.16-0.29
		c-0.1-0.1-0.24-0.16-0.4-0.18c-0.17-0.01-0.35-0.02-0.54-0.02h-0.34L250.54,21.54z"/>
	<path d="M257.36,18.69c0.37,0,0.7,0.04,1,0.1c0.29,0.07,0.54,0.21,0.76,0.42c0.11,0.11,0.2,0.22,0.26,0.34
		c0.07,0.12,0.12,0.24,0.15,0.36s0.06,0.24,0.07,0.36s0.02,0.22,0.02,0.32c0,0.1,0,0.21-0.01,0.33c-0.01,0.12-0.02,0.24-0.04,0.36
		c-0.02,0.12-0.03,0.25-0.05,0.36c-0.02,0.12-0.04,0.23-0.05,0.32l-0.14,0.72c-0.03,0.15-0.06,0.31-0.1,0.48s-0.08,0.34-0.14,0.51
		c-0.06,0.17-0.13,0.34-0.22,0.5c-0.09,0.16-0.2,0.3-0.33,0.44c-0.14,0.14-0.3,0.26-0.48,0.35s-0.36,0.15-0.55,0.2
		s-0.39,0.08-0.59,0.09s-0.4,0.02-0.6,0.02h-2.07l1.28-6.58H257.36z M256.28,23.99c0.2,0,0.41-0.02,0.61-0.05s0.38-0.13,0.54-0.3
		c0.14-0.14,0.24-0.31,0.3-0.51s0.11-0.42,0.16-0.65l0.12-0.58c0.06-0.29,0.1-0.5,0.11-0.65c0.01-0.15,0.02-0.26,0.02-0.34
		c0-0.1-0.01-0.22-0.04-0.34s-0.09-0.24-0.19-0.34c-0.11-0.11-0.25-0.19-0.41-0.22s-0.31-0.04-0.45-0.04h-0.31l-0.77,4.02H256.28z"
		/>
	<path d="M259.73,24.65h0.75l1.05-5.38h-0.75l0.11-0.58h2.96l-0.11,0.58h-0.76l-1.05,5.38h0.76l-0.12,0.62h-2.96L259.73,24.65z"/>
	<path d="M264.96,18.69h1.29l1.4,4l0.75-4h1.27l-1.28,6.58h-1.08l-1.51-4.45l-0.84,4.45h-1.27L264.96,18.69z"/>
	<path d="M271.07,23.32c0.05,0.11,0.12,0.22,0.21,0.33c0.09,0.11,0.17,0.21,0.26,0.29c0.21,0.18,0.46,0.27,0.74,0.27
		c0.16,0,0.29-0.02,0.39-0.06c0.1-0.04,0.19-0.09,0.25-0.15c0.08-0.07,0.13-0.16,0.17-0.25s0.05-0.18,0.05-0.27
		c0-0.1-0.02-0.18-0.05-0.26c-0.03-0.07-0.08-0.15-0.15-0.21c-0.04-0.05-0.1-0.1-0.18-0.17c-0.08-0.06-0.18-0.14-0.32-0.23
		l-0.54-0.35c-0.17-0.11-0.33-0.23-0.46-0.34c-0.14-0.11-0.25-0.23-0.33-0.35s-0.15-0.25-0.2-0.4c-0.05-0.15-0.07-0.31-0.07-0.5
		c0-0.31,0.05-0.59,0.16-0.85c0.11-0.26,0.25-0.48,0.44-0.67c0.15-0.15,0.36-0.29,0.63-0.43c0.27-0.13,0.61-0.2,1.04-0.2
		c0.27,0,0.51,0.03,0.73,0.1c0.22,0.07,0.42,0.16,0.62,0.29c0.19,0.12,0.34,0.25,0.46,0.38s0.21,0.27,0.28,0.39l-1.12,0.75
		c-0.09-0.13-0.18-0.23-0.26-0.31s-0.15-0.14-0.19-0.17c-0.11-0.09-0.23-0.16-0.33-0.2c-0.11-0.04-0.23-0.06-0.38-0.06
		c-0.16,0-0.28,0.02-0.37,0.07s-0.16,0.1-0.21,0.15c-0.11,0.12-0.16,0.26-0.16,0.43c0,0.17,0.06,0.32,0.19,0.45
		c0.05,0.05,0.12,0.11,0.18,0.16s0.15,0.1,0.23,0.16l0.6,0.4c0.1,0.07,0.22,0.16,0.36,0.27c0.14,0.11,0.25,0.21,0.33,0.3
		c0.17,0.17,0.3,0.36,0.37,0.56c0.07,0.2,0.11,0.42,0.11,0.66c0,0.34-0.06,0.62-0.18,0.86c-0.12,0.24-0.26,0.44-0.42,0.6
		c-0.18,0.18-0.41,0.34-0.7,0.47s-0.64,0.2-1.07,0.2c-0.26,0-0.51-0.03-0.75-0.1c-0.23-0.07-0.46-0.17-0.67-0.32
		c-0.12-0.08-0.23-0.17-0.32-0.27c-0.1-0.1-0.18-0.19-0.24-0.27c-0.07-0.09-0.12-0.17-0.16-0.23c-0.04-0.07-0.07-0.12-0.09-0.16
		L271.07,23.32z"/>
	<path d="M279.63,18.39v9h-0.91v-9H279.63z"/>
	<path d="M284.41,24.19h1.25l0.86-4.42h-1.34l0.21-1.08h2.67l-1.07,5.5h1.25l-0.21,1.08h-3.83L284.41,24.19z"/>
	<path d="M289.42,24.19h1.25l0.86-4.42h-1.34l0.21-1.08h2.67l-1.07,5.5h1.25l-0.21,1.08h-3.83L289.42,24.19z"/>
	<path d="M296.09,17.1l0.31,0.95h-0.39l-0.65-0.95H296.09z M294.76,18.43h2.57l-0.15,0.75h-1.72l-0.13,0.68h1.17l-0.14,0.75h-1.17
		l-0.18,0.92h1.83l-0.15,0.75h-2.68L294.76,18.43z"/>
	<path d="M300.98,19.05l-1.44,3.22h-0.57l-0.19-3.22l-0.6,3.22h-0.74l0.75-3.84h1.13l0.19,2.48l1.16-2.48h1.16l-0.75,3.84h-0.74
		L300.98,19.05z"/>
	<path d="M302.8,18.43h2.57l-0.15,0.75h-1.72l-0.13,0.68h1.17l-0.14,0.75h-1.17l-0.18,0.92h1.83l-0.15,0.75h-2.68L302.8,18.43z"/>
	<path d="M311.61,18.03h-0.67l1.16-1.63h1.26L311.61,18.03z M309.2,18.69h4.4l-0.25,1.28h-2.94l-0.22,1.17h2l-0.24,1.28h-2
		l-0.31,1.57h3.14l-0.25,1.28h-4.6L309.2,18.69z"/>
	<path d="M316.89,18.69c0.37,0,0.7,0.04,1,0.1c0.29,0.07,0.54,0.21,0.76,0.42c0.11,0.11,0.2,0.22,0.26,0.34
		c0.07,0.12,0.12,0.24,0.15,0.36s0.06,0.24,0.07,0.36s0.02,0.22,0.02,0.32c0,0.1,0,0.21-0.01,0.33c-0.01,0.12-0.02,0.24-0.04,0.36
		c-0.02,0.12-0.03,0.25-0.05,0.36c-0.02,0.12-0.04,0.23-0.05,0.32l-0.14,0.72c-0.03,0.15-0.06,0.31-0.1,0.48s-0.08,0.34-0.14,0.51
		c-0.06,0.17-0.13,0.34-0.22,0.5c-0.09,0.16-0.2,0.3-0.33,0.44c-0.14,0.14-0.3,0.26-0.48,0.35s-0.36,0.15-0.55,0.2
		s-0.39,0.08-0.59,0.09s-0.4,0.02-0.6,0.02h-2.07l1.28-6.58H316.89z M315.81,23.99c0.2,0,0.41-0.02,0.61-0.05s0.38-0.13,0.54-0.3
		c0.14-0.14,0.24-0.31,0.3-0.51s0.11-0.42,0.16-0.65l0.12-0.58c0.06-0.29,0.1-0.5,0.11-0.65c0.01-0.15,0.02-0.26,0.02-0.34
		c0-0.1-0.01-0.22-0.04-0.34s-0.09-0.24-0.19-0.34c-0.11-0.11-0.25-0.19-0.41-0.22s-0.31-0.04-0.45-0.04h-0.31l-0.77,4.02H315.81z"
		/>
	<path d="M319.27,24.65h0.75l1.05-5.38h-0.75l0.11-0.58h2.96l-0.11,0.58h-0.76l-1.05,5.38h0.76l-0.12,0.62h-2.96L319.27,24.65z"/>
	<path d="M325.2,19.97h-1.67l0.25-1.28h4.79l-0.25,1.28h-1.67l-1.03,5.3h-1.46L325.2,19.97z"/>
	<path d="M327.81,24.65h0.75l1.05-5.38h-0.75l0.11-0.58h2.96l-0.11,0.58h-0.76l-1.05,5.38h0.76l-0.12,0.62h-2.96L327.81,24.65z"/>
	<path d="M332.4,21.4c0.05-0.24,0.1-0.47,0.15-0.68s0.12-0.41,0.19-0.6c0.07-0.19,0.16-0.36,0.25-0.53c0.1-0.16,0.21-0.31,0.34-0.43
		c0.22-0.21,0.47-0.37,0.77-0.48c0.3-0.11,0.62-0.16,0.97-0.16c0.35,0,0.65,0.05,0.88,0.16c0.23,0.11,0.42,0.23,0.57,0.38
		c0.18,0.19,0.3,0.38,0.36,0.59c0.06,0.21,0.08,0.43,0.08,0.65c0,0.23-0.02,0.43-0.05,0.6c-0.03,0.17-0.06,0.34-0.09,0.5l-0.23,1.16
		c-0.09,0.46-0.2,0.87-0.32,1.24s-0.31,0.69-0.55,0.94c-0.07,0.07-0.16,0.15-0.26,0.23s-0.22,0.16-0.37,0.22
		c-0.14,0.07-0.31,0.12-0.5,0.17c-0.19,0.04-0.4,0.07-0.63,0.07c-0.2,0-0.38-0.02-0.53-0.05c-0.16-0.03-0.29-0.07-0.41-0.12
		s-0.22-0.1-0.3-0.16c-0.08-0.06-0.15-0.11-0.19-0.16c-0.13-0.12-0.24-0.29-0.34-0.51c-0.1-0.22-0.15-0.51-0.15-0.86
		c0-0.1,0.01-0.23,0.03-0.38c0.02-0.15,0.05-0.36,0.1-0.62L332.4,21.4z M335.4,21.15c0.01-0.03,0.02-0.08,0.03-0.14
		c0.01-0.06,0.02-0.13,0.03-0.2s0.02-0.14,0.03-0.22s0.01-0.13,0.01-0.18c0-0.12-0.02-0.22-0.05-0.29s-0.07-0.13-0.12-0.18
		c-0.06-0.05-0.13-0.09-0.21-0.12c-0.08-0.02-0.16-0.04-0.23-0.04c-0.2,0-0.38,0.06-0.52,0.19c-0.1,0.1-0.18,0.24-0.25,0.42
		c-0.06,0.18-0.13,0.43-0.19,0.75l-0.32,1.65c-0.03,0.14-0.05,0.27-0.07,0.39c-0.02,0.12-0.03,0.24-0.03,0.35
		c0,0.05,0.01,0.13,0.02,0.22c0.01,0.09,0.06,0.17,0.13,0.24c0.11,0.11,0.27,0.16,0.5,0.16c0.08,0,0.17-0.01,0.27-0.04
		s0.18-0.08,0.27-0.17c0.09-0.1,0.16-0.24,0.22-0.42c0.06-0.19,0.12-0.43,0.18-0.73L335.4,21.15z"/>
	<path d="M338.9,18.69h1.29l1.4,4l0.75-4h1.27l-1.28,6.58h-1.08l-1.51-4.45l-0.84,4.45h-1.27L338.9,18.69z"/>
	<path d="M107.09,30.09v2.58h2.62v-2.58h0.63v5.98h-0.63V33.2h-2.62v2.87h-0.63v-5.98H107.09z"/>
	<path d="M116.5,33.14c0,0.45-0.04,0.86-0.12,1.22c-0.08,0.36-0.19,0.68-0.33,0.95c-0.17,0.31-0.39,0.55-0.66,0.72
		c-0.27,0.17-0.59,0.25-0.97,0.25c-0.66,0-1.18-0.25-1.55-0.74c-0.19-0.26-0.34-0.57-0.44-0.93c-0.1-0.36-0.15-0.82-0.15-1.38
		c0-0.55,0.04-1,0.11-1.37c0.07-0.37,0.18-0.67,0.32-0.93c0.18-0.33,0.41-0.57,0.7-0.73s0.6-0.24,0.94-0.24
		c0.63,0,1.12,0.21,1.48,0.64c0.23,0.28,0.4,0.64,0.51,1.08C116.45,32.13,116.5,32.61,116.5,33.14z M114.37,35.78
		c0.27,0,0.51-0.08,0.72-0.23s0.38-0.38,0.51-0.69c0.04-0.11,0.08-0.21,0.11-0.32c0.03-0.11,0.06-0.22,0.09-0.36
		c0.02-0.13,0.04-0.28,0.05-0.45s0.02-0.37,0.02-0.6c0-0.84-0.12-1.49-0.37-1.96c-0.24-0.47-0.62-0.7-1.12-0.7
		c-0.26,0-0.49,0.08-0.7,0.23c-0.21,0.15-0.38,0.39-0.51,0.71c-0.17,0.42-0.26,1.01-0.26,1.78c0,0.5,0.04,0.91,0.11,1.22
		c0.07,0.31,0.18,0.57,0.32,0.78c0.13,0.2,0.28,0.34,0.46,0.44C113.99,35.73,114.18,35.78,114.37,35.78z"/>
	<path d="M120.45,30.09c0.64,0,1.11,0.14,1.41,0.42c0.31,0.28,0.46,0.68,0.46,1.21c0,0.51-0.14,0.91-0.43,1.2s-0.69,0.44-1.2,0.45
		l1.88,2.69h-0.76l-1.73-2.65h-1.04v2.65h-0.62v-5.98H120.45z M120.2,32.88c0.53,0,0.91-0.09,1.13-0.28
		c0.23-0.19,0.34-0.47,0.34-0.85c0-0.38-0.1-0.66-0.3-0.84c-0.2-0.18-0.52-0.27-0.97-0.27h-1.35v2.25H120.2z"/>
	<path d="M128.13,30.09v0.52h-1.92v5.45h-0.64v-5.45h-1.91v-0.52H128.13z"/>
	<path d="M131.36,30.09v0.35h-0.66v5.27h0.66v0.35h-1.94v-0.35h0.66v-5.27h-0.66v-0.35H131.36z"/>
	<path d="M134,30.09v5.44h3.06v0.54h-3.68v-5.98H134z"/>
	<path d="M139.5,30.09v5.44h3.06v0.54h-3.68v-5.98H139.5z"/>
	<path d="M148,33.14c0,0.45-0.04,0.86-0.12,1.22c-0.08,0.36-0.19,0.68-0.33,0.95c-0.17,0.31-0.39,0.55-0.66,0.72
		c-0.27,0.17-0.59,0.25-0.97,0.25c-0.66,0-1.18-0.25-1.55-0.74c-0.19-0.26-0.34-0.57-0.44-0.93c-0.1-0.36-0.15-0.82-0.15-1.38
		c0-0.55,0.04-1,0.11-1.37c0.07-0.37,0.18-0.67,0.32-0.93c0.18-0.33,0.41-0.57,0.7-0.73s0.6-0.24,0.94-0.24
		c0.63,0,1.12,0.21,1.48,0.64c0.23,0.28,0.4,0.64,0.51,1.08C147.95,32.13,148,32.61,148,33.14z M145.87,35.78
		c0.27,0,0.51-0.08,0.72-0.23s0.38-0.38,0.51-0.69c0.04-0.11,0.08-0.21,0.11-0.32c0.03-0.11,0.06-0.22,0.09-0.36
		c0.02-0.13,0.04-0.28,0.05-0.45s0.02-0.37,0.02-0.6c0-0.84-0.12-1.49-0.37-1.96c-0.24-0.47-0.62-0.7-1.12-0.7
		c-0.26,0-0.49,0.08-0.7,0.23c-0.21,0.15-0.38,0.39-0.51,0.71c-0.17,0.42-0.26,1.01-0.26,1.78c0,0.5,0.04,0.91,0.11,1.22
		c0.07,0.31,0.18,0.57,0.32,0.78c0.13,0.2,0.28,0.34,0.46,0.44C145.49,35.73,145.68,35.78,145.87,35.78z"/>
	<path d="M150.96,30.09l1.56,3.76c0.02,0.07,0.07,0.18,0.13,0.33c0.06,0.15,0.12,0.31,0.18,0.47c0.06,0.16,0.11,0.31,0.16,0.44
		s0.08,0.21,0.09,0.23c0.05,0.13,0.1,0.19,0.14,0.19c0.01,0,0.03-0.01,0.04-0.04s0.03-0.05,0.03-0.09v-5.3h0.59v5.98h-1.09
		l-1.65-4.03c-0.15-0.37-0.26-0.64-0.33-0.82c-0.07-0.18-0.12-0.32-0.15-0.42c-0.04-0.1-0.07-0.15-0.11-0.15
		c-0.02,0-0.04,0.01-0.05,0.03c-0.01,0.02-0.02,0.03-0.02,0.04v5.36h-0.59v-5.98H150.96z"/>
	<path d="M157.46,30.09l1.56,3.76c0.02,0.07,0.07,0.18,0.13,0.33c0.06,0.15,0.12,0.31,0.18,0.47c0.06,0.16,0.11,0.31,0.16,0.44
		s0.08,0.21,0.09,0.23c0.05,0.13,0.1,0.19,0.14,0.19c0.01,0,0.03-0.01,0.04-0.04s0.03-0.05,0.03-0.09v-5.3h0.59v5.98h-1.09
		l-1.65-4.03c-0.15-0.37-0.26-0.64-0.33-0.82c-0.07-0.18-0.12-0.32-0.15-0.42c-0.04-0.1-0.07-0.15-0.11-0.15
		c-0.02,0-0.04,0.01-0.05,0.03c-0.01,0.02-0.02,0.03-0.02,0.04v5.36h-0.59v-5.98H157.46z"/>
	<path d="M164.97,30l2.3,6.07h-0.67l-0.54-1.46h-2.83l-0.54,1.46h-0.67l2.32-6.07H164.97z M163.4,34.1h2.48l-1.18-3.21
		c-0.01-0.04-0.03-0.05-0.05-0.05c-0.02,0-0.04,0.03-0.06,0.09L163.4,34.1z"/>
	<path d="M171.86,31.62c-0.11-0.4-0.27-0.69-0.48-0.87c-0.21-0.19-0.48-0.28-0.81-0.28c-0.53,0-0.92,0.24-1.19,0.73
		c-0.27,0.49-0.4,1.19-0.4,2.1c0,0.19,0.01,0.4,0.04,0.63c0.03,0.23,0.08,0.43,0.14,0.62c0.12,0.37,0.29,0.66,0.52,0.89
		c0.23,0.23,0.53,0.34,0.9,0.34c0.47,0,0.83-0.16,1.09-0.49c0.26-0.33,0.39-0.82,0.39-1.47h-1.6v-0.52h2.12v2.93h-0.19l-0.35-0.69
		c-0.19,0.24-0.41,0.42-0.65,0.55c-0.24,0.13-0.5,0.19-0.79,0.19c-0.46,0-0.83-0.09-1.11-0.27c-0.28-0.18-0.5-0.42-0.68-0.72
		c-0.15-0.26-0.27-0.57-0.35-0.93c-0.08-0.36-0.12-0.73-0.12-1.13c0-0.94,0.17-1.69,0.5-2.25c0.19-0.32,0.43-0.57,0.72-0.75
		c0.29-0.18,0.61-0.26,0.95-0.26c0.2,0,0.4,0.03,0.58,0.08c0.19,0.05,0.36,0.13,0.52,0.24c0.16,0.11,0.3,0.26,0.43,0.45
		s0.24,0.41,0.33,0.68L171.86,31.62z"/>
	<path d="M178.71,30.09v0.52h-3.15v2.03h2.71v0.55h-2.71v2.33h3.25v0.54h-3.87v-5.98H178.71z"/>
	<path d="M183.53,31.48c-0.11-0.35-0.28-0.6-0.49-0.77c-0.21-0.16-0.47-0.24-0.77-0.24c-0.31,0-0.57,0.08-0.79,0.25
		c-0.22,0.17-0.33,0.43-0.33,0.77c0,0.12,0.02,0.23,0.06,0.34c0.04,0.1,0.11,0.21,0.22,0.32c0.12,0.12,0.27,0.22,0.45,0.3
		c0.18,0.08,0.43,0.18,0.73,0.3c0.31,0.11,0.56,0.23,0.77,0.35c0.21,0.12,0.38,0.25,0.51,0.39c0.13,0.14,0.23,0.3,0.28,0.48
		c0.06,0.18,0.08,0.39,0.08,0.64c0,0.22-0.04,0.44-0.13,0.65c-0.09,0.21-0.2,0.39-0.35,0.53c-0.16,0.16-0.36,0.29-0.61,0.37
		s-0.54,0.13-0.88,0.13c-0.41,0-0.78-0.11-1.1-0.34c-0.32-0.23-0.59-0.58-0.81-1.06l0.54-0.26c0.06,0.16,0.13,0.31,0.22,0.45
		c0.09,0.14,0.19,0.26,0.31,0.36c0.12,0.1,0.27,0.18,0.44,0.24c0.17,0.06,0.37,0.09,0.59,0.09c0.34,0,0.62-0.1,0.84-0.29
		c0.23-0.19,0.34-0.48,0.34-0.84c0-0.16-0.02-0.29-0.07-0.41s-0.1-0.21-0.17-0.29c-0.07-0.08-0.14-0.15-0.22-0.21
		c-0.08-0.06-0.16-0.1-0.24-0.14c-0.19-0.1-0.37-0.18-0.53-0.25c-0.16-0.07-0.3-0.13-0.41-0.18c-0.16-0.07-0.32-0.13-0.49-0.21
		c-0.17-0.07-0.33-0.18-0.49-0.31c-0.15-0.13-0.27-0.3-0.36-0.51c-0.09-0.21-0.13-0.42-0.13-0.63c0-0.47,0.15-0.84,0.44-1.12
		s0.72-0.42,1.28-0.42c0.43,0,0.78,0.1,1.05,0.3c0.27,0.2,0.52,0.51,0.73,0.93L183.53,31.48z"/>
	<path d="M190.95,30l2.3,6.07h-0.67l-0.54-1.46h-2.83l-0.54,1.46H188l2.32-6.07H190.95z M189.38,34.1h2.48l-1.18-3.21
		c-0.01-0.04-0.03-0.05-0.05-0.05c-0.02,0-0.04,0.03-0.06,0.09L189.38,34.1z"/>
	<path d="M196.09,30.09l1.05,3.68c0.03,0.1,0.06,0.22,0.09,0.37c0.03,0.14,0.07,0.31,0.12,0.5c0.05,0.22,0.09,0.38,0.13,0.46
		c0.04,0.08,0.07,0.13,0.11,0.13c0.1,0,0.18-0.15,0.24-0.45c0.03-0.15,0.07-0.31,0.11-0.48s0.1-0.36,0.16-0.57l1.05-3.64h1.27v5.98
		h-0.6v-5.56c0-0.04-0.01-0.07-0.03-0.09c-0.02-0.03-0.05-0.04-0.09-0.04c-0.04,0-0.07,0.01-0.09,0.04
		c-0.03,0.03-0.1,0.24-0.21,0.63l-1.44,5.03h-0.73l-1.19-4.27c-0.1-0.33-0.17-0.59-0.21-0.78c-0.05-0.19-0.08-0.33-0.1-0.41
		c-0.03-0.09-0.05-0.15-0.07-0.19c-0.01-0.04-0.05-0.06-0.09-0.06c-0.08,0-0.13,0.04-0.13,0.13v5.57h-0.6v-5.98H196.09z"/>
	<path d="M204.34,30.09v0.35h-0.66v5.27h0.66v0.35h-1.94v-0.35h0.66v-5.27h-0.66v-0.35H204.34z"/>
	<path d="M210.19,30.09v0.52h-3.15v2.03h2.71v0.55h-2.71v2.33h3.25v0.54h-3.87v-5.98H210.19z"/>
	<path d="M213.45,30.09l1.56,3.76c0.02,0.07,0.07,0.18,0.13,0.33c0.06,0.15,0.12,0.31,0.18,0.47c0.06,0.16,0.11,0.31,0.16,0.44
		s0.08,0.21,0.09,0.23c0.05,0.13,0.1,0.19,0.14,0.19c0.01,0,0.03-0.01,0.04-0.04s0.03-0.05,0.03-0.09v-5.3h0.59v5.98h-1.09
		l-1.65-4.03c-0.15-0.37-0.26-0.64-0.33-0.82c-0.07-0.18-0.12-0.32-0.15-0.42c-0.04-0.1-0.07-0.15-0.11-0.15
		c-0.02,0-0.04,0.01-0.05,0.03c-0.01,0.02-0.02,0.03-0.02,0.04v5.36h-0.59v-5.98H213.45z"/>
	<path d="M221.51,31.48c-0.11-0.35-0.28-0.6-0.49-0.77c-0.21-0.16-0.47-0.24-0.77-0.24c-0.31,0-0.57,0.08-0.79,0.25
		c-0.22,0.17-0.33,0.43-0.33,0.77c0,0.12,0.02,0.23,0.06,0.34c0.04,0.1,0.11,0.21,0.22,0.32c0.12,0.12,0.27,0.22,0.45,0.3
		c0.18,0.08,0.43,0.18,0.73,0.3c0.31,0.11,0.56,0.23,0.77,0.35c0.21,0.12,0.38,0.25,0.51,0.39c0.13,0.14,0.23,0.3,0.28,0.48
		c0.06,0.18,0.08,0.39,0.08,0.64c0,0.22-0.04,0.44-0.13,0.65c-0.09,0.21-0.2,0.39-0.35,0.53c-0.16,0.16-0.36,0.29-0.61,0.37
		s-0.54,0.13-0.88,0.13c-0.41,0-0.78-0.11-1.1-0.34c-0.32-0.23-0.59-0.58-0.81-1.06l0.54-0.26c0.06,0.16,0.13,0.31,0.22,0.45
		c0.09,0.14,0.19,0.26,0.31,0.36c0.12,0.1,0.27,0.18,0.44,0.24c0.17,0.06,0.37,0.09,0.59,0.09c0.34,0,0.62-0.1,0.84-0.29
		c0.23-0.19,0.34-0.48,0.34-0.84c0-0.16-0.02-0.29-0.07-0.41s-0.1-0.21-0.17-0.29c-0.07-0.08-0.14-0.15-0.22-0.21
		c-0.08-0.06-0.16-0.1-0.24-0.14c-0.19-0.1-0.37-0.18-0.53-0.25c-0.16-0.07-0.3-0.13-0.41-0.18c-0.16-0.07-0.32-0.13-0.49-0.21
		c-0.17-0.07-0.33-0.18-0.49-0.31c-0.15-0.13-0.27-0.3-0.36-0.51c-0.09-0.21-0.13-0.42-0.13-0.63c0-0.47,0.15-0.84,0.44-1.12
		s0.72-0.42,1.28-0.42c0.43,0,0.78,0.1,1.05,0.3c0.27,0.2,0.52,0.51,0.73,0.93L221.51,31.48z"/>
	<path d="M105.86,51.09h1.46v5.3h2.88v1.28h-4.34V51.09z"/>
	<path d="M112.22,55.19c0,0.24,0.01,0.45,0.04,0.62c0.02,0.17,0.07,0.31,0.13,0.42c0.06,0.11,0.15,0.19,0.27,0.24
		c0.12,0.05,0.27,0.08,0.46,0.08s0.35-0.03,0.46-0.08c0.12-0.05,0.21-0.14,0.27-0.25c0.07-0.11,0.11-0.25,0.13-0.42
		c0.02-0.17,0.03-0.37,0.03-0.61v-4.1h1.46v4.45c0,0.78-0.19,1.36-0.58,1.73c-0.38,0.38-0.98,0.56-1.78,0.56s-1.4-0.19-1.78-0.57
		s-0.58-0.95-0.58-1.73v-4.45h1.46V55.19z"/>
	<path d="M117.24,51.09h1.4l2.11,4l-0.03-4h1.27v6.58h-1.2l-2.31-4.45l0.03,4.45h-1.27V51.09z"/>
	<path d="M125.54,51.09c0.41,0,0.77,0.02,1.07,0.05c0.3,0.04,0.56,0.13,0.78,0.28c0.27,0.18,0.48,0.44,0.62,0.77
		c0.15,0.33,0.22,0.72,0.22,1.17v2.02c0,0.45-0.07,0.84-0.22,1.18c-0.15,0.34-0.36,0.59-0.62,0.77c-0.22,0.14-0.48,0.24-0.78,0.28
		c-0.3,0.04-0.66,0.06-1.08,0.06h-1.9v-6.58H125.54z M125.44,56.39c0.47,0,0.81-0.1,1.02-0.31s0.31-0.55,0.31-1.03v-1.37
		c0-0.48-0.1-0.82-0.3-1.02c-0.2-0.2-0.54-0.3-1.02-0.3h-0.34v4.02H125.44z"/>
	<path d="M130.2,55.78c0,0.29,0.03,0.51,0.09,0.64c0.06,0.13,0.19,0.2,0.38,0.2c0.2,0,0.33-0.07,0.38-0.2
		c0.06-0.14,0.08-0.35,0.08-0.64v-4.69h1.46v4.86c0,0.64-0.14,1.12-0.42,1.42s-0.73,0.46-1.35,0.46c-0.58,0-1.02-0.14-1.32-0.43
		c-0.3-0.29-0.46-0.71-0.46-1.25v-0.59h1.15V55.78z"/>
	<path d="M137.35,56.35h-1.98l-0.34,1.31h-1.41l1.89-6.58h1.72l1.89,6.58h-1.41L137.35,56.35z M137.07,55.23l-0.7-2.97l-0.71,2.97
		H137.07z"/>
	<path d="M147.35,52.14l-1.4,5.53h-0.98l-1.4-5.53l0.04,5.53h-1.27v-6.58h1.96l1.15,4.25l1.16-4.25h1.96v6.58h-1.27L147.35,52.14z"
		/>
	<path d="M150.3,51.09h4.44v1.28h-2.98v1.17h2.03v1.28h-2.03v1.57h3.17v1.28h-4.63V51.09z"/>
	<path d="M158.13,51.09c0.41,0,0.77,0.02,1.07,0.05c0.3,0.04,0.56,0.13,0.78,0.28c0.27,0.18,0.48,0.44,0.62,0.77
		c0.15,0.33,0.22,0.72,0.22,1.17v2.02c0,0.45-0.07,0.84-0.22,1.18c-0.15,0.34-0.36,0.59-0.62,0.77c-0.22,0.14-0.48,0.24-0.78,0.28
		c-0.3,0.04-0.66,0.06-1.08,0.06h-1.9v-6.58H158.13z M158.03,56.39c0.47,0,0.81-0.1,1.02-0.31s0.31-0.55,0.31-1.03v-1.37
		c0-0.48-0.1-0.82-0.3-1.02c-0.2-0.2-0.54-0.3-1.02-0.3h-0.34v4.02H158.03z"/>
	<path d="M162.79,55.78c0,0.29,0.03,0.51,0.09,0.64c0.06,0.13,0.19,0.2,0.38,0.2c0.2,0,0.33-0.07,0.38-0.2
		c0.06-0.14,0.08-0.35,0.08-0.64v-4.69h1.46v4.86c0,0.64-0.14,1.12-0.42,1.42s-0.73,0.46-1.35,0.46c-0.58,0-1.02-0.14-1.32-0.43
		c-0.3-0.29-0.46-0.71-0.46-1.25v-0.59h1.15V55.78z"/>
	<path d="M166.72,53.8c0-0.25,0-0.49,0.01-0.7s0.03-0.42,0.08-0.6c0.04-0.19,0.1-0.36,0.17-0.52s0.18-0.31,0.32-0.45
		c0.4-0.41,0.94-0.61,1.64-0.61c0.71,0,1.26,0.2,1.66,0.61c0.13,0.14,0.24,0.29,0.32,0.45s0.14,0.33,0.18,0.52
		c0.04,0.19,0.07,0.39,0.08,0.6c0.01,0.22,0.01,0.45,0.01,0.7v1.16c0,0.25,0,0.49-0.01,0.7c-0.01,0.22-0.04,0.42-0.08,0.6
		c-0.04,0.19-0.1,0.36-0.18,0.52c-0.08,0.16-0.18,0.31-0.32,0.45c-0.4,0.41-0.95,0.61-1.66,0.61c-0.7,0-1.24-0.2-1.64-0.61
		c-0.14-0.14-0.24-0.29-0.32-0.45c-0.08-0.16-0.13-0.33-0.17-0.52c-0.04-0.19-0.07-0.39-0.08-0.6s-0.01-0.45-0.01-0.7V53.8z
		 M169.71,53.55c0-0.23-0.01-0.43-0.02-0.6s-0.05-0.31-0.1-0.42c-0.05-0.11-0.13-0.2-0.23-0.25c-0.1-0.05-0.24-0.08-0.41-0.08
		c-0.17,0-0.31,0.03-0.41,0.08c-0.1,0.05-0.17,0.14-0.23,0.25c-0.05,0.11-0.08,0.25-0.1,0.42c-0.02,0.17-0.02,0.37-0.02,0.6v1.65
		c0,0.23,0.01,0.43,0.02,0.6c0.01,0.17,0.05,0.31,0.1,0.42c0.05,0.11,0.13,0.2,0.23,0.25c0.1,0.05,0.24,0.08,0.41,0.08
		c0.17,0,0.3-0.03,0.41-0.08c0.1-0.05,0.18-0.14,0.23-0.25c0.05-0.11,0.08-0.25,0.1-0.42s0.02-0.37,0.02-0.6V53.55z"/>
	<path d="M174.3,55.19c0,0.24,0.01,0.45,0.04,0.62c0.02,0.17,0.07,0.31,0.13,0.42c0.06,0.11,0.15,0.19,0.27,0.24
		c0.12,0.05,0.27,0.08,0.46,0.08s0.35-0.03,0.46-0.08c0.12-0.05,0.21-0.14,0.27-0.25c0.07-0.11,0.11-0.25,0.13-0.42
		c0.02-0.17,0.03-0.37,0.03-0.61v-4.1h1.46v4.45c0,0.78-0.19,1.36-0.58,1.73c-0.38,0.38-0.98,0.56-1.78,0.56s-1.4-0.19-1.78-0.57
		s-0.58-0.95-0.58-1.73v-4.45h1.46V55.19z"/>
	<path d="M179.35,51.09h2.18c0.75,0,1.31,0.13,1.67,0.41c0.36,0.27,0.54,0.69,0.54,1.27c0,0.36-0.07,0.65-0.22,0.88
		c-0.14,0.23-0.38,0.41-0.7,0.56c0.71,0.22,1.06,0.75,1.06,1.58c0,0.65-0.19,1.12-0.57,1.43s-0.96,0.46-1.74,0.46h-2.23V51.09z
		 M180.81,53.73h0.58c0.59,0,0.88-0.27,0.88-0.81c0-0.29-0.07-0.5-0.21-0.62s-0.36-0.19-0.67-0.19h-0.58V53.73z M180.81,56.59h0.63
		c0.33,0,0.57-0.07,0.73-0.22c0.16-0.15,0.24-0.38,0.24-0.7c0-0.61-0.32-0.91-0.97-0.91h-0.63V56.59z"/>
	<path d="M192.99,57.8c-0.04,0-0.07,0-0.11,0s-0.07,0-0.11,0c-0.35,0-0.65-0.04-0.91-0.13s-0.5-0.23-0.71-0.43
		c-0.28,0.21-0.56,0.36-0.86,0.46c-0.3,0.1-0.62,0.14-0.99,0.14c-0.34,0-0.65-0.05-0.92-0.15c-0.27-0.1-0.51-0.25-0.7-0.43
		c-0.2-0.19-0.35-0.41-0.45-0.67c-0.11-0.26-0.16-0.55-0.16-0.87c0-0.49,0.12-0.91,0.36-1.27s0.6-0.65,1.07-0.87
		c-0.12-0.24-0.21-0.46-0.28-0.66c-0.07-0.2-0.1-0.38-0.1-0.54c0-0.22,0.04-0.41,0.13-0.59c0.08-0.18,0.2-0.33,0.36-0.46
		s0.34-0.23,0.55-0.3c0.22-0.07,0.46-0.11,0.72-0.11c0.24,0,0.46,0.03,0.65,0.1c0.2,0.07,0.36,0.17,0.5,0.29
		c0.14,0.12,0.25,0.27,0.33,0.45s0.12,0.37,0.12,0.58c0,0.32-0.11,0.63-0.33,0.91c-0.22,0.28-0.54,0.53-0.98,0.75
		c0.14,0.23,0.3,0.47,0.47,0.71s0.36,0.47,0.56,0.71c0.26-0.4,0.45-0.83,0.58-1.3l1.2,0.4c-0.11,0.34-0.24,0.66-0.38,0.95
		c-0.15,0.29-0.32,0.56-0.51,0.81c0.12,0.08,0.25,0.14,0.4,0.18c0.14,0.04,0.31,0.06,0.5,0.06V57.8z M189.63,53.17
		c0.25-0.1,0.44-0.23,0.58-0.39c0.13-0.16,0.2-0.32,0.2-0.5c0-0.16-0.05-0.29-0.15-0.38c-0.1-0.09-0.25-0.14-0.43-0.14
		c-0.18,0-0.32,0.05-0.41,0.14c-0.1,0.09-0.14,0.22-0.14,0.37c0,0.12,0.03,0.25,0.09,0.4C189.41,52.82,189.51,52.98,189.63,53.17z
		 M190.31,56.38c-0.28-0.32-0.52-0.63-0.73-0.95c-0.21-0.32-0.41-0.63-0.58-0.93c-0.41,0.33-0.61,0.68-0.61,1.06
		c0,0.16,0.03,0.3,0.09,0.44c0.06,0.14,0.13,0.25,0.23,0.36c0.1,0.1,0.22,0.18,0.35,0.24c0.13,0.06,0.28,0.09,0.43,0.09
		C189.79,56.69,190.07,56.58,190.31,56.38z"/>
	<path d="M201.54,52.14l-1.4,5.53h-0.98l-1.4-5.53l0.04,5.53h-1.27v-6.58h1.96l1.15,4.25l1.16-4.25h1.96v6.58h-1.27L201.54,52.14z"
		/>
	<path d="M207.63,56.35h-1.98l-0.34,1.31h-1.41l1.89-6.58h1.72l1.89,6.58h-1.41L207.63,56.35z M207.35,55.23l-0.7-2.97l-0.71,2.97
		H207.35z"/>
	<path d="M210.93,52.37h-1.67v-1.28h4.79v1.28h-1.67v5.3h-1.46V52.37z"/>
	<path d="M214.45,57.05h0.75v-5.38h-0.75v-0.58h2.96v0.58h-0.76v5.38h0.76v0.62h-2.96V57.05z"/>
	<path d="M219.3,55.71c0.19,0.31,0.39,0.54,0.58,0.69c0.2,0.15,0.43,0.22,0.7,0.22c0.25,0,0.45-0.07,0.6-0.2s0.22-0.3,0.22-0.5
		c0-0.35-0.24-0.63-0.73-0.84c-0.32-0.14-0.62-0.26-0.9-0.37c-0.28-0.11-0.52-0.25-0.73-0.41c-0.46-0.36-0.69-0.85-0.69-1.48
		c0-0.29,0.05-0.55,0.15-0.79c0.1-0.24,0.24-0.44,0.42-0.6c0.18-0.17,0.41-0.29,0.67-0.38s0.56-0.13,0.89-0.13
		c0.96,0,1.68,0.39,2.15,1.16l-1.04,0.75c-0.35-0.49-0.74-0.74-1.19-0.74c-0.23,0-0.41,0.06-0.54,0.17
		c-0.13,0.11-0.19,0.26-0.19,0.43c0,0.17,0.06,0.31,0.19,0.44s0.33,0.25,0.6,0.37c0.34,0.14,0.64,0.27,0.93,0.39
		c0.28,0.11,0.52,0.25,0.72,0.41c0.22,0.17,0.39,0.39,0.51,0.65c0.12,0.26,0.18,0.55,0.18,0.87c0,0.3-0.05,0.57-0.16,0.82
		c-0.11,0.25-0.26,0.46-0.46,0.64s-0.44,0.32-0.71,0.41c-0.28,0.1-0.59,0.15-0.93,0.15c-1.03,0-1.82-0.44-2.38-1.33L219.3,55.71z"/>
	<path d="M224.99,55.71c0.19,0.31,0.39,0.54,0.58,0.69c0.2,0.15,0.43,0.22,0.7,0.22c0.25,0,0.45-0.07,0.6-0.2s0.22-0.3,0.22-0.5
		c0-0.35-0.24-0.63-0.73-0.84c-0.32-0.14-0.62-0.26-0.9-0.37c-0.28-0.11-0.52-0.25-0.73-0.41c-0.46-0.36-0.69-0.85-0.69-1.48
		c0-0.29,0.05-0.55,0.15-0.79c0.1-0.24,0.24-0.44,0.42-0.6c0.18-0.17,0.41-0.29,0.67-0.38s0.56-0.13,0.89-0.13
		c0.96,0,1.68,0.39,2.15,1.16l-1.04,0.75c-0.35-0.49-0.74-0.74-1.19-0.74c-0.23,0-0.41,0.06-0.54,0.17
		c-0.13,0.11-0.19,0.26-0.19,0.43c0,0.17,0.06,0.31,0.19,0.44s0.33,0.25,0.6,0.37c0.34,0.14,0.64,0.27,0.93,0.39
		c0.28,0.11,0.52,0.25,0.72,0.41c0.22,0.17,0.39,0.39,0.51,0.65c0.12,0.26,0.18,0.55,0.18,0.87c0,0.3-0.05,0.57-0.16,0.82
		c-0.11,0.25-0.26,0.46-0.46,0.64s-0.44,0.32-0.71,0.41c-0.28,0.1-0.59,0.15-0.93,0.15c-1.03,0-1.82-0.44-2.38-1.33L224.99,55.71z"
		/>
	<path d="M229.89,51.09h4.44v1.28h-2.98v1.17h2.03v1.28h-2.03v1.57h3.17v1.28h-4.63V51.09z"/>
	<path d="M239.37,57.67l-2.02-6.58h1.46l1.33,4.6l1.32-4.6h1.46l-2.02,6.58H239.37z"/>
	<path d="M245.65,51.09c0.44,0,0.83,0.02,1.17,0.04c0.33,0.03,0.62,0.11,0.86,0.23c0.3,0.16,0.53,0.38,0.68,0.66s0.23,0.62,0.23,1
		c0,0.44-0.1,0.82-0.31,1.12c-0.2,0.3-0.5,0.52-0.9,0.66l1.44,2.85h-1.63l-1.28-2.68h-0.49v2.68h-1.46v-6.58H245.65z M245.43,53.94
		h0.41c0.22,0,0.41-0.01,0.57-0.03c0.16-0.02,0.29-0.06,0.4-0.13c0.1-0.06,0.18-0.15,0.23-0.26s0.08-0.26,0.08-0.45
		c0-0.19-0.03-0.34-0.08-0.45s-0.13-0.2-0.23-0.27c-0.11-0.06-0.24-0.1-0.4-0.13c-0.16-0.02-0.35-0.03-0.57-0.03h-0.41V53.94z"/>
	<path d="M249.42,57.05h0.75v-5.38h-0.75v-0.58h2.96v0.58h-0.76v5.38h0.76v0.62h-2.96V57.05z"/>
	<path d="M253.42,53.8c0-0.25,0-0.49,0.01-0.7s0.03-0.42,0.08-0.6c0.04-0.19,0.1-0.36,0.17-0.52s0.18-0.31,0.32-0.45
		c0.39-0.41,0.94-0.61,1.65-0.61c0.67,0,1.2,0.18,1.59,0.54c0.4,0.36,0.61,0.85,0.64,1.49h-1.48c-0.04-0.5-0.29-0.75-0.76-0.75
		c-0.18,0-0.32,0.03-0.42,0.08c-0.1,0.06-0.18,0.14-0.23,0.26s-0.08,0.26-0.09,0.43s-0.02,0.37-0.02,0.59v1.65
		c0,0.22,0.01,0.42,0.02,0.59c0.01,0.17,0.04,0.31,0.09,0.43c0.05,0.11,0.12,0.2,0.23,0.26c0.1,0.06,0.24,0.08,0.42,0.08
		c0.27,0,0.46-0.08,0.58-0.24c0.12-0.16,0.18-0.41,0.18-0.76v-0.25h-0.76v-1.12h2.24v3.56h-0.65l-0.21-0.53
		c-0.19,0.22-0.4,0.37-0.63,0.47c-0.22,0.1-0.49,0.15-0.8,0.15c-0.34,0-0.64-0.05-0.91-0.16c-0.27-0.11-0.5-0.26-0.69-0.45
		c-0.14-0.14-0.24-0.29-0.32-0.45c-0.08-0.16-0.13-0.33-0.17-0.52c-0.04-0.19-0.07-0.39-0.08-0.6s-0.01-0.45-0.01-0.7V53.8z"/>
	<path d="M259.52,51.09h1.4l2.11,4l-0.03-4h1.27v6.58h-1.2l-2.31-4.45l0.03,4.45h-1.27V51.09z"/>
	<path d="M269.12,56.35h-1.98l-0.34,1.31h-1.41l1.89-6.58h1.72l1.89,6.58h-1.41L269.12,56.35z M268.84,55.23l-0.7-2.97l-0.71,2.97
		H268.84z"/>
	<path d="M273.49,55.19c0,0.24,0.01,0.45,0.04,0.62c0.02,0.17,0.07,0.31,0.13,0.42c0.06,0.11,0.15,0.19,0.27,0.24
		c0.12,0.05,0.27,0.08,0.46,0.08s0.35-0.03,0.46-0.08c0.12-0.05,0.21-0.14,0.27-0.25c0.07-0.11,0.11-0.25,0.13-0.42
		c0.02-0.17,0.03-0.37,0.03-0.61v-4.1h1.46v4.45c0,0.78-0.19,1.36-0.58,1.73c-0.38,0.38-0.98,0.56-1.78,0.56s-1.4-0.19-1.78-0.57
		s-0.58-0.95-0.58-1.73v-4.45h1.46V55.19z"/>
	<path d="M280.31,51.09c0.41,0,0.77,0.02,1.07,0.05c0.3,0.04,0.56,0.13,0.78,0.28c0.27,0.18,0.48,0.44,0.62,0.77
		c0.15,0.33,0.22,0.72,0.22,1.17v2.02c0,0.45-0.07,0.84-0.22,1.18c-0.15,0.34-0.36,0.59-0.62,0.77c-0.22,0.14-0.48,0.24-0.78,0.28
		c-0.3,0.04-0.66,0.06-1.08,0.06h-1.9v-6.58H280.31z M280.21,56.39c0.47,0,0.81-0.1,1.02-0.31s0.31-0.55,0.31-1.03v-1.37
		c0-0.48-0.1-0.82-0.3-1.02c-0.2-0.2-0.54-0.3-1.02-0.3h-0.34v4.02H280.21z"/>
	<path d="M108.25,62.49l-1.05,5.44h3.08l-0.11,0.54h-3.69l1.16-5.98H108.25z"/>
	<path d="M116.58,62.49l-0.11,0.54h-3.09l-0.4,2.03h2.66l-0.1,0.54h-2.66l-0.45,2.32h3.19l-0.11,0.54h-3.8l1.16-5.98H116.58z"/>
	<path d="M117.95,67.37c0.08,0.14,0.16,0.26,0.27,0.36c0.11,0.11,0.26,0.2,0.42,0.27c0.17,0.07,0.35,0.1,0.55,0.1
		c0.19,0,0.36-0.03,0.53-0.09c0.17-0.06,0.31-0.15,0.42-0.27c0.1-0.1,0.18-0.23,0.23-0.37c0.05-0.15,0.08-0.3,0.08-0.45
		c0-0.14-0.02-0.27-0.07-0.41s-0.13-0.26-0.25-0.38c-0.1-0.1-0.2-0.18-0.32-0.25c-0.12-0.07-0.23-0.13-0.33-0.19l-0.37-0.22
		c-0.2-0.12-0.36-0.22-0.47-0.3c-0.11-0.08-0.2-0.15-0.26-0.22c-0.13-0.13-0.22-0.28-0.29-0.43c-0.07-0.16-0.1-0.34-0.1-0.55
		c0-0.27,0.04-0.5,0.13-0.69c0.09-0.19,0.19-0.35,0.32-0.48c0.19-0.19,0.39-0.32,0.6-0.38c0.22-0.06,0.42-0.09,0.62-0.09
		c0.22,0,0.42,0.03,0.62,0.09c0.2,0.06,0.39,0.17,0.58,0.33c0.13,0.11,0.24,0.23,0.34,0.37c0.1,0.14,0.19,0.28,0.25,0.41l-0.55,0.28
		c-0.05-0.11-0.11-0.22-0.18-0.34s-0.15-0.21-0.22-0.27c-0.08-0.07-0.19-0.15-0.33-0.22c-0.14-0.08-0.33-0.11-0.56-0.11
		c-0.15,0-0.29,0.02-0.43,0.07s-0.26,0.12-0.37,0.24c-0.08,0.08-0.15,0.19-0.2,0.32s-0.08,0.26-0.08,0.41c0,0.26,0.1,0.49,0.3,0.68
		c0.08,0.08,0.18,0.16,0.3,0.23c0.12,0.07,0.24,0.14,0.37,0.21l0.33,0.19c0.14,0.08,0.27,0.16,0.41,0.25s0.24,0.18,0.33,0.27
		c0.16,0.16,0.27,0.33,0.34,0.51c0.07,0.18,0.11,0.38,0.11,0.58c0,0.26-0.04,0.5-0.13,0.71c-0.09,0.21-0.2,0.39-0.35,0.54
		c-0.12,0.13-0.3,0.26-0.54,0.39s-0.56,0.19-0.94,0.19c-0.29,0-0.54-0.04-0.75-0.13c-0.21-0.09-0.39-0.21-0.54-0.35
		c-0.14-0.13-0.25-0.29-0.35-0.46c-0.09-0.17-0.16-0.34-0.21-0.5l0.54-0.22C117.82,67.1,117.87,67.23,117.95,67.37z"/>
	<path d="M127.73,62.49c0.11,0,0.24,0,0.39,0.01c0.14,0.01,0.29,0.02,0.43,0.05c0.14,0.03,0.28,0.08,0.41,0.14
		c0.13,0.06,0.25,0.14,0.35,0.24c0.08,0.08,0.15,0.2,0.22,0.33c0.07,0.14,0.1,0.31,0.1,0.53c0,0.2-0.03,0.37-0.09,0.52
		c-0.06,0.15-0.15,0.28-0.27,0.4s-0.26,0.21-0.45,0.3c-0.18,0.09-0.35,0.15-0.51,0.19l-0.02,0.08c0.11,0.03,0.2,0.06,0.29,0.1
		s0.16,0.08,0.22,0.12c0.06,0.04,0.11,0.08,0.14,0.11s0.05,0.05,0.06,0.05c0.08,0.08,0.16,0.2,0.23,0.35
		c0.07,0.15,0.1,0.34,0.1,0.58c0,0.28-0.05,0.53-0.14,0.74s-0.21,0.38-0.35,0.51c-0.14,0.14-0.3,0.26-0.48,0.34
		c-0.18,0.08-0.36,0.14-0.54,0.18c-0.19,0.04-0.37,0.06-0.55,0.08c-0.18,0.01-0.35,0.02-0.5,0.02h-1.84l1.16-5.98H127.73z
		 M127.33,64.97c0.1,0,0.22,0,0.35-0.01c0.13-0.01,0.26-0.03,0.39-0.05s0.25-0.07,0.37-0.12c0.12-0.05,0.22-0.12,0.31-0.21
		c0.09-0.1,0.16-0.21,0.2-0.34s0.07-0.25,0.07-0.37c0-0.11-0.02-0.21-0.05-0.31c-0.04-0.1-0.09-0.18-0.15-0.25
		c-0.06-0.06-0.13-0.11-0.22-0.15c-0.09-0.04-0.18-0.07-0.28-0.09c-0.1-0.02-0.2-0.03-0.31-0.04c-0.11-0.01-0.21-0.01-0.31-0.01
		h-1.11l-0.38,1.94H127.33z M127.23,67.91c0.14-0.01,0.28-0.03,0.41-0.06c0.14-0.03,0.27-0.08,0.4-0.14
		c0.13-0.06,0.24-0.15,0.35-0.25c0.1-0.1,0.18-0.23,0.24-0.37c0.06-0.15,0.09-0.32,0.09-0.51c0-0.18-0.03-0.33-0.09-0.45
		c-0.06-0.12-0.12-0.21-0.18-0.27c-0.08-0.08-0.18-0.15-0.29-0.2s-0.22-0.08-0.34-0.1c-0.12-0.02-0.23-0.03-0.34-0.04
		c-0.11-0.01-0.2-0.01-0.29-0.01h-1.09l-0.47,2.41h1.21C126.97,67.93,127.09,67.92,127.23,67.91z"/>
	<path d="M134.05,62.49l1.19,5.98h-0.61l-0.28-1.43h-3.03l-0.85,1.43h-0.65l3.52-5.98H134.05z M133.62,63.28h-0.12l-1.88,3.21h2.62
		L133.62,63.28z"/>
	<path d="M138.48,62.49l-1.05,5.44h3.08l-0.11,0.54h-3.69l1.16-5.98H138.48z"/>
	<path d="M144.96,62.49l1.19,5.98h-0.61l-0.28-1.43h-3.03l-0.85,1.43h-0.65l3.52-5.98H144.96z M144.53,63.28h-0.12l-1.88,3.21h2.62
		L144.53,63.28z"/>
	<path d="M149.86,62.49l1.17,5.37h0.16l1.04-5.37h0.61l-1.16,5.98h-1.11l-1.14-5.38h-0.16l-1.04,5.38h-0.61l1.16-5.98H149.86z"/>
	<path d="M157.67,67.5c-0.11,0.21-0.23,0.39-0.38,0.54c-0.11,0.11-0.22,0.21-0.34,0.28c-0.12,0.07-0.24,0.13-0.36,0.17
		s-0.23,0.08-0.33,0.09c-0.11,0.02-0.2,0.03-0.28,0.04l-0.06,0.31h0.04c0.21,0,0.37,0.02,0.49,0.06s0.2,0.09,0.26,0.15
		c0.04,0.04,0.08,0.1,0.11,0.17c0.03,0.07,0.05,0.15,0.05,0.26c0,0.08-0.02,0.18-0.05,0.3s-0.11,0.22-0.22,0.32
		c-0.12,0.11-0.26,0.2-0.42,0.24s-0.36,0.07-0.58,0.07c-0.13,0-0.23-0.01-0.32-0.03s-0.18-0.04-0.28-0.07
		c-0.08-0.03-0.16-0.06-0.23-0.08c-0.07-0.02-0.14-0.06-0.22-0.1l0.07-0.38c0.07,0.03,0.14,0.06,0.22,0.08
		c0.08,0.03,0.16,0.05,0.22,0.07c0.14,0.04,0.26,0.07,0.36,0.08c0.1,0.01,0.18,0.01,0.23,0.01c0.08,0,0.17-0.01,0.27-0.03
		c0.1-0.02,0.18-0.06,0.24-0.11c0.08-0.07,0.13-0.17,0.13-0.29c0-0.07-0.01-0.12-0.04-0.16c-0.02-0.04-0.04-0.06-0.05-0.08
		c-0.04-0.04-0.1-0.07-0.16-0.09c-0.07-0.02-0.13-0.03-0.2-0.03c-0.07,0-0.13,0-0.19,0c-0.06,0-0.1,0-0.13,0l0.14-0.68
		c-0.14-0.01-0.29-0.04-0.46-0.1c-0.17-0.05-0.34-0.17-0.52-0.33c-0.16-0.16-0.3-0.37-0.42-0.64c-0.12-0.27-0.18-0.61-0.18-1.02
		c0-0.32,0.03-0.65,0.1-0.99c0.07-0.35,0.14-0.65,0.22-0.92c0.11-0.33,0.24-0.65,0.4-0.95c0.16-0.3,0.34-0.55,0.54-0.75
		c0.2-0.2,0.42-0.35,0.67-0.46c0.25-0.11,0.53-0.16,0.85-0.16c0.19,0,0.39,0.03,0.58,0.09c0.2,0.06,0.38,0.18,0.54,0.35
		c0.15,0.16,0.26,0.35,0.32,0.57c0.07,0.22,0.09,0.43,0.06,0.64l-0.57,0.2v-0.1c0-0.16-0.02-0.32-0.05-0.5
		c-0.03-0.17-0.11-0.33-0.25-0.46c-0.07-0.07-0.17-0.13-0.29-0.18s-0.27-0.07-0.44-0.07c-0.41,0-0.75,0.14-1.03,0.43
		c-0.1,0.1-0.21,0.25-0.35,0.47s-0.27,0.54-0.41,0.98c-0.08,0.25-0.15,0.54-0.21,0.85c-0.06,0.32-0.09,0.63-0.09,0.94
		c0,0.23,0.03,0.47,0.09,0.7c0.06,0.23,0.17,0.43,0.35,0.58c0.08,0.07,0.17,0.14,0.29,0.2c0.12,0.06,0.26,0.09,0.44,0.09
		c0.18,0,0.36-0.03,0.53-0.1s0.32-0.16,0.45-0.28c0.14-0.13,0.25-0.29,0.34-0.49c0.09-0.19,0.16-0.38,0.2-0.57l0.52,0.21
		C157.85,67.08,157.78,67.29,157.67,67.5z"/>
	<path d="M159.39,65.51c0.06-0.34,0.14-0.66,0.24-0.98c0.09-0.29,0.2-0.57,0.34-0.85c0.14-0.28,0.32-0.53,0.55-0.76
		c0.41-0.41,0.89-0.62,1.42-0.62c0.16,0,0.31,0.02,0.44,0.05s0.24,0.07,0.33,0.12s0.17,0.09,0.23,0.14
		c0.06,0.05,0.11,0.09,0.15,0.12c0.12,0.11,0.22,0.24,0.29,0.37c0.07,0.13,0.13,0.27,0.16,0.4c0.04,0.13,0.06,0.27,0.07,0.4
		c0.01,0.13,0.02,0.25,0.02,0.37c0,0.32-0.03,0.66-0.09,1.02c-0.06,0.35-0.13,0.69-0.23,1c-0.07,0.24-0.18,0.52-0.32,0.83
		c-0.14,0.31-0.34,0.6-0.6,0.86c-0.26,0.26-0.53,0.44-0.8,0.53c-0.27,0.09-0.5,0.13-0.71,0.13s-0.39-0.03-0.57-0.1
		c-0.17-0.07-0.34-0.17-0.49-0.32c-0.14-0.15-0.27-0.36-0.38-0.63c-0.11-0.27-0.17-0.63-0.17-1.07
		C159.3,66.18,159.34,65.85,159.39,65.51z M160.03,67.35c0.08,0.2,0.17,0.36,0.28,0.47c0.08,0.08,0.18,0.14,0.29,0.2
		c0.12,0.05,0.25,0.08,0.41,0.08c0.11,0,0.25-0.02,0.42-0.07c0.17-0.05,0.35-0.17,0.54-0.36c0.04-0.04,0.08-0.09,0.14-0.17
		c0.06-0.08,0.13-0.18,0.2-0.31c0.07-0.13,0.15-0.29,0.23-0.48s0.16-0.42,0.23-0.69c0.02-0.07,0.04-0.16,0.07-0.27
		c0.03-0.12,0.06-0.25,0.09-0.4c0.03-0.15,0.05-0.31,0.07-0.48c0.02-0.17,0.03-0.34,0.03-0.52c0-0.2-0.02-0.37-0.04-0.51
		c-0.03-0.14-0.07-0.26-0.11-0.36c-0.04-0.1-0.09-0.18-0.13-0.24c-0.05-0.06-0.09-0.11-0.13-0.14c-0.07-0.06-0.15-0.12-0.26-0.17
		c-0.11-0.05-0.24-0.08-0.42-0.08c-0.2,0-0.38,0.04-0.53,0.1c-0.16,0.07-0.3,0.16-0.42,0.28c-0.1,0.1-0.22,0.25-0.36,0.48
		c-0.14,0.22-0.28,0.55-0.41,0.99c-0.02,0.05-0.04,0.13-0.08,0.26s-0.07,0.27-0.1,0.45c-0.03,0.17-0.06,0.36-0.09,0.56
		s-0.04,0.41-0.04,0.61C159.92,66.89,159.96,67.15,160.03,67.35z"/>
	<path d="M165.23,68.11l1.02-5.26h-0.63l0.07-0.36h1.87l-0.07,0.36h-0.63l-1.02,5.26h0.63l-0.07,0.36h-1.87l0.07-0.36H165.23z"/>
	<path d="M171.31,62.49c0.1,0,0.22,0.01,0.35,0.02s0.27,0.04,0.41,0.07c0.14,0.03,0.27,0.08,0.41,0.14
		c0.13,0.06,0.25,0.14,0.35,0.24c0.1,0.1,0.18,0.23,0.26,0.39c0.08,0.16,0.12,0.37,0.12,0.63c0,0.28-0.04,0.52-0.13,0.71
		s-0.19,0.35-0.31,0.47c-0.1,0.11-0.22,0.2-0.35,0.28c-0.13,0.07-0.27,0.14-0.4,0.19c-0.13,0.05-0.27,0.09-0.4,0.12
		s-0.25,0.05-0.34,0.06l1.27,2.67h-0.67l-1.22-2.6h-1.01l-0.5,2.6h-0.61l1.16-5.98H171.31z M170.55,65.33
		c0.49,0,0.88-0.05,1.15-0.15c0.27-0.1,0.47-0.21,0.6-0.35c0.07-0.07,0.13-0.16,0.19-0.29s0.09-0.3,0.09-0.51
		c0-0.17-0.02-0.31-0.07-0.41s-0.11-0.2-0.17-0.26c-0.14-0.14-0.32-0.23-0.54-0.27c-0.22-0.04-0.46-0.06-0.72-0.06h-0.88l-0.44,2.3
		H170.55z"/>
	<path d="M179.47,62.49l-0.11,0.54h-3.09l-0.4,2.03h2.66l-0.1,0.54h-2.66l-0.45,2.32h3.19l-0.11,0.54h-3.8l1.16-5.98H179.47z"/>
	<path d="M184.99,62.49l0.39,5.44h0.19l2.49-5.44h1.24l-1.16,5.98h-0.61l1.09-5.62h-0.19l-2.55,5.62h-1l-0.38-5.62h-0.18l-1.09,5.62
		h-0.61l1.16-5.98H184.99z"/>
	<path d="M191.8,66.11c-0.06,0.3-0.1,0.52-0.12,0.66c-0.02,0.14-0.03,0.25-0.03,0.34s0.02,0.2,0.04,0.33
		c0.03,0.13,0.1,0.25,0.22,0.37c0.13,0.14,0.28,0.22,0.45,0.25s0.31,0.04,0.45,0.04c0.16,0,0.34-0.02,0.53-0.06
		c0.19-0.04,0.37-0.14,0.52-0.31c0.1-0.1,0.17-0.21,0.23-0.34c0.06-0.12,0.1-0.24,0.14-0.35c0.03-0.08,0.06-0.18,0.08-0.29
		c0.03-0.11,0.06-0.25,0.09-0.42l0.75-3.84h0.55l-0.75,3.85c-0.03,0.17-0.06,0.33-0.09,0.47c-0.03,0.14-0.07,0.29-0.12,0.45
		c-0.05,0.14-0.11,0.29-0.18,0.44c-0.08,0.16-0.18,0.3-0.32,0.44c-0.11,0.11-0.23,0.2-0.35,0.26c-0.13,0.07-0.25,0.12-0.38,0.15
		c-0.13,0.03-0.25,0.05-0.36,0.07c-0.12,0.01-0.22,0.02-0.32,0.02c-0.36,0-0.65-0.05-0.86-0.15c-0.22-0.1-0.38-0.21-0.5-0.33
		c-0.12-0.13-0.21-0.28-0.28-0.47c-0.07-0.19-0.1-0.39-0.1-0.6c0-0.16,0.02-0.32,0.04-0.5c0.03-0.17,0.07-0.38,0.12-0.6l0.67-3.49
		h0.58L191.8,66.11z"/>
	<path d="M197.5,67.37c0.08,0.14,0.16,0.26,0.27,0.36c0.11,0.11,0.26,0.2,0.42,0.27c0.17,0.07,0.35,0.1,0.55,0.1
		c0.19,0,0.36-0.03,0.53-0.09c0.17-0.06,0.31-0.15,0.42-0.27c0.1-0.1,0.18-0.23,0.23-0.37c0.05-0.15,0.08-0.3,0.08-0.45
		c0-0.14-0.02-0.27-0.07-0.41s-0.13-0.26-0.25-0.38c-0.1-0.1-0.2-0.18-0.32-0.25c-0.12-0.07-0.23-0.13-0.33-0.19l-0.37-0.22
		c-0.2-0.12-0.36-0.22-0.47-0.3c-0.11-0.08-0.2-0.15-0.26-0.22c-0.13-0.13-0.22-0.28-0.29-0.43c-0.07-0.16-0.1-0.34-0.1-0.55
		c0-0.27,0.04-0.5,0.13-0.69c0.09-0.19,0.19-0.35,0.32-0.48c0.19-0.19,0.39-0.32,0.6-0.38c0.22-0.06,0.42-0.09,0.62-0.09
		c0.22,0,0.42,0.03,0.62,0.09c0.2,0.06,0.39,0.17,0.58,0.33c0.13,0.11,0.24,0.23,0.34,0.37c0.1,0.14,0.19,0.28,0.25,0.41l-0.55,0.28
		c-0.05-0.11-0.11-0.22-0.18-0.34s-0.15-0.21-0.22-0.27c-0.08-0.07-0.19-0.15-0.33-0.22c-0.14-0.08-0.33-0.11-0.56-0.11
		c-0.15,0-0.29,0.02-0.43,0.07s-0.26,0.12-0.37,0.24c-0.08,0.08-0.15,0.19-0.2,0.32s-0.08,0.26-0.08,0.41c0,0.26,0.1,0.49,0.3,0.68
		c0.08,0.08,0.18,0.16,0.3,0.23c0.12,0.07,0.24,0.14,0.37,0.21l0.33,0.19c0.14,0.08,0.27,0.16,0.41,0.25s0.24,0.18,0.33,0.27
		c0.16,0.16,0.27,0.33,0.34,0.51c0.07,0.18,0.11,0.38,0.11,0.58c0,0.26-0.04,0.5-0.13,0.71c-0.09,0.21-0.2,0.39-0.35,0.54
		c-0.12,0.13-0.3,0.26-0.54,0.39s-0.56,0.19-0.94,0.19c-0.29,0-0.54-0.04-0.75-0.13c-0.21-0.09-0.39-0.21-0.54-0.35
		c-0.14-0.13-0.25-0.29-0.35-0.46c-0.09-0.17-0.16-0.34-0.21-0.5l0.54-0.22C197.37,67.1,197.42,67.23,197.5,67.37z"/>
	<path d="M205.7,67.5c-0.11,0.21-0.23,0.39-0.38,0.54c-0.12,0.12-0.24,0.22-0.37,0.3c-0.13,0.08-0.26,0.14-0.39,0.18
		c-0.13,0.04-0.26,0.08-0.38,0.09s-0.24,0.02-0.34,0.02c-0.21,0-0.41-0.03-0.59-0.1c-0.19-0.07-0.36-0.18-0.53-0.34
		c-0.16-0.16-0.3-0.38-0.42-0.64c-0.12-0.27-0.18-0.6-0.18-1.01c0-0.32,0.03-0.65,0.1-0.99c0.07-0.35,0.14-0.65,0.22-0.92
		c0.11-0.33,0.24-0.65,0.4-0.95c0.16-0.3,0.34-0.55,0.54-0.75c0.2-0.2,0.42-0.35,0.67-0.46c0.25-0.11,0.53-0.16,0.85-0.16
		c0.19,0,0.39,0.03,0.58,0.09c0.2,0.06,0.38,0.18,0.54,0.35c0.15,0.16,0.26,0.35,0.32,0.57c0.07,0.22,0.09,0.43,0.06,0.64l-0.57,0.2
		v-0.1c0-0.16-0.02-0.32-0.04-0.5c-0.03-0.17-0.11-0.33-0.25-0.46c-0.07-0.07-0.17-0.13-0.29-0.18s-0.27-0.07-0.44-0.07
		c-0.41,0-0.75,0.14-1.03,0.43c-0.1,0.1-0.21,0.25-0.35,0.47s-0.27,0.54-0.41,0.98c-0.08,0.25-0.15,0.54-0.21,0.85
		c-0.06,0.32-0.09,0.63-0.09,0.94c0,0.23,0.03,0.47,0.09,0.7c0.06,0.23,0.17,0.43,0.35,0.58c0.08,0.07,0.17,0.14,0.29,0.2
		c0.12,0.06,0.26,0.09,0.44,0.09c0.18,0,0.36-0.03,0.53-0.1s0.32-0.16,0.45-0.28c0.14-0.13,0.25-0.29,0.34-0.49
		c0.09-0.19,0.16-0.38,0.2-0.57l0.52,0.21C205.89,67.08,205.81,67.29,205.7,67.5z"/>
	<path d="M210.61,62.49l1.19,5.98h-0.61l-0.28-1.43h-3.03l-0.85,1.43h-0.65l3.52-5.98H210.61z M210.17,63.28h-0.12l-1.88,3.21h2.62
		L210.17,63.28z"/>
	<path d="M215.03,62.49l-1.05,5.44h3.08l-0.11,0.54h-3.69l1.16-5.98H215.03z"/>
	<path d="M223.36,62.49l-0.11,0.54h-3.09l-0.4,2.03h2.66l-0.1,0.54h-2.66l-0.45,2.32h3.19l-0.11,0.54h-3.8l1.16-5.98H223.36z"/>
	<path d="M224.73,67.37c0.08,0.14,0.16,0.26,0.27,0.36c0.11,0.11,0.26,0.2,0.42,0.27c0.17,0.07,0.35,0.1,0.55,0.1
		c0.19,0,0.36-0.03,0.53-0.09c0.17-0.06,0.31-0.15,0.42-0.27c0.1-0.1,0.18-0.23,0.23-0.37c0.05-0.15,0.08-0.3,0.08-0.45
		c0-0.14-0.02-0.27-0.07-0.41s-0.13-0.26-0.25-0.38c-0.1-0.1-0.2-0.18-0.32-0.25c-0.12-0.07-0.23-0.13-0.33-0.19l-0.37-0.22
		c-0.2-0.12-0.36-0.22-0.47-0.3s-0.2-0.15-0.26-0.22c-0.13-0.13-0.22-0.28-0.29-0.43c-0.07-0.16-0.1-0.34-0.1-0.55
		c0-0.27,0.04-0.5,0.13-0.69c0.09-0.19,0.19-0.35,0.32-0.48c0.19-0.19,0.39-0.32,0.6-0.38c0.22-0.06,0.42-0.09,0.62-0.09
		c0.22,0,0.42,0.03,0.62,0.09c0.2,0.06,0.39,0.17,0.58,0.33c0.13,0.11,0.24,0.23,0.34,0.37c0.1,0.14,0.19,0.28,0.25,0.41l-0.55,0.28
		c-0.05-0.11-0.11-0.22-0.18-0.34s-0.15-0.21-0.22-0.27c-0.08-0.07-0.19-0.15-0.33-0.22c-0.14-0.08-0.33-0.11-0.56-0.11
		c-0.15,0-0.29,0.02-0.43,0.07s-0.26,0.12-0.37,0.24c-0.08,0.08-0.15,0.19-0.2,0.32s-0.08,0.26-0.08,0.41c0,0.26,0.1,0.49,0.3,0.68
		c0.08,0.08,0.18,0.16,0.3,0.23c0.12,0.07,0.24,0.14,0.37,0.21l0.33,0.19c0.14,0.08,0.27,0.16,0.41,0.25s0.24,0.18,0.33,0.27
		c0.16,0.16,0.27,0.33,0.34,0.51c0.07,0.18,0.11,0.38,0.11,0.58c0,0.26-0.04,0.5-0.13,0.71s-0.2,0.39-0.35,0.54
		c-0.12,0.13-0.3,0.26-0.54,0.39s-0.56,0.19-0.94,0.19c-0.29,0-0.54-0.04-0.75-0.13c-0.21-0.09-0.39-0.21-0.54-0.35
		c-0.14-0.13-0.25-0.29-0.35-0.46c-0.09-0.17-0.16-0.34-0.21-0.5l0.54-0.22C224.6,67.1,224.65,67.23,224.73,67.37z"/>
</g>
<path d="M383.53,46.67c0.26,0.82,0.45,1.55,0.71,2.25c1.42,3.78,4.06,6.35,7.82,7.79c0.2,0.08,0.41,0.16,0.61,0.25l1.2,0.5
	l1.36-0.92c1.34-1.07,2.81-2.04,3.99-3.27c2.99-3.12,4-6.93,3.33-11.17c-0.62-3.89-2.64-7-5.53-9.58c-1.67-1.49-3.4-2.9-5.11-4.35
	c-0.23-0.19-0.49-0.34-0.82-0.57c-0.41,2.05-1.22,3.83-2.29,5.49c-0.68,1.05-1.45,2.05-2.1,3.12c-0.69,1.14-1.36,2.29-1.88,3.51
	c-0.53,1.26-0.87,2.61-1.29,3.92C383.52,43.62,383.19,45.55,383.53,46.67z M392.98,33.65c0.27,0.17,0.55,0.3,0.79,0.48
	c2.55,1.97,4.49,4.38,5.3,7.56c0.94,3.73,0.06,7-2.67,9.71c-0.85,0.85-1.87,1.54-2.93,2.4c-0.86-0.55-1.56-1-2.43-1.55
	c2.69-1.98,4.04-4.43,3.69-7.66c-0.34-3.16-2.16-5.38-4.66-7.22C391.06,36.1,392,34.91,392.98,33.65z M386.92,44.76
	c0.17-0.95,1.46-2.63,2.5-3.27c2.61,2.25,2.63,6.06-0.2,7.72C387.26,48.13,386.56,46.76,386.92,44.76z"/>
<path d="M438.64,25.36c0,0-1.15,2.83-3.1,4.05c-1.96,1.21-2.56,4.52-1.89,6.54c0,0-4.52-2.56-9.04-2.5c0,0,1.62,5.87,7.96,10.12
	c0,0-2.56-0.47-4.93,2.43c-2.36,2.9-2.5,3.85-4.52,4.12c0,0,2.36,1.62,5.2,1.62s6.21-1.82,7.22-2.77c0,0,0.07,4.39-2.7,7.89
	c0,0,0.13,1.08,2.16,0.74c0,0,2.09-3.51,3.04-9.04c0,0,1.82,2.43,3.98,2.43c2.16,0,8.77-3.51,9.92-5.2c0,0-6.54-0.67-8.3-1.42
	c0,0,7.22-4.99,9.11-10.66c0,0-7.69,1.42-11.2,3.31c0,0,0.61-2.5,0.54-3.71c-0.07-1.21-0.54-2.77-1.75-3.98
	C439.11,28.13,438.64,25.36,438.64,25.36z"/>
<line class="st0" x1="357.91" y1="12.11" x2="357.91" y2="72.93"/>
<line class="st0" x1="91.38" y1="12.11" x2="91.38" y2="72.93"/>
<g>
	<path d="M30.7,24.2h-1.98l-0.34,1.31h-1.41l1.89-6.58h1.72l1.89,6.58h-1.41L30.7,24.2z M30.42,23.08l-0.7-2.97l-0.71,2.97H30.42z"
		/>
	<path d="M35.13,18.94c0.45,0,0.84,0.02,1.17,0.05s0.62,0.12,0.85,0.26c0.3,0.17,0.53,0.4,0.68,0.7s0.23,0.65,0.23,1.06
		c0,0.41-0.08,0.76-0.23,1.06s-0.38,0.53-0.68,0.7c-0.23,0.13-0.52,0.22-0.85,0.25s-0.72,0.05-1.17,0.05h-0.2v2.45h-1.46v-6.58
		H35.13z M34.93,21.95h0.41c0.46,0,0.78-0.06,0.97-0.19c0.19-0.13,0.29-0.38,0.29-0.75c0-0.19-0.02-0.34-0.07-0.46
		s-0.12-0.22-0.22-0.29c-0.1-0.07-0.23-0.12-0.39-0.15s-0.36-0.04-0.58-0.04h-0.41V21.95z"/>
	<path d="M40.75,18.94c0.45,0,0.84,0.02,1.17,0.05s0.62,0.12,0.85,0.26c0.3,0.17,0.53,0.4,0.68,0.7s0.23,0.65,0.23,1.06
		c0,0.41-0.08,0.76-0.23,1.06s-0.38,0.53-0.68,0.7c-0.23,0.13-0.52,0.22-0.85,0.25s-0.72,0.05-1.17,0.05h-0.2v2.45h-1.46v-6.58
		H40.75z M40.55,21.95h0.41c0.46,0,0.78-0.06,0.97-0.19c0.19-0.13,0.29-0.38,0.29-0.75c0-0.19-0.02-0.34-0.07-0.46
		s-0.12-0.22-0.22-0.29c-0.1-0.07-0.23-0.12-0.39-0.15s-0.36-0.04-0.58-0.04h-0.41V21.95z"/>
	<path d="M44.8,18.94h4.44v1.28h-2.98v1.17h2.03v1.28h-2.03v1.57h3.17v1.28H44.8V18.94z"/>
	<path d="M50.68,18.94h1.46v5.3h2.88v1.28h-4.34V18.94z"/>
	<path d="M61.09,24.2h-1.98l-0.34,1.31h-1.41l1.89-6.58h1.72l1.89,6.58h-1.41L61.09,24.2z M59.73,16.65l0.85,1.63H59.9l-1.43-1.63
		H59.73z M60.81,23.08l-0.7-2.97l-0.71,2.97H60.81z"/>
	<path d="M29.13,29.74c0.45,0,0.84,0.02,1.17,0.05s0.62,0.12,0.85,0.26c0.3,0.17,0.53,0.4,0.68,0.7s0.23,0.65,0.23,1.06
		c0,0.41-0.08,0.76-0.23,1.06s-0.38,0.53-0.68,0.7c-0.23,0.13-0.52,0.22-0.85,0.25s-0.72,0.05-1.17,0.05h-0.2v2.45h-1.46v-6.58
		H29.13z M28.93,32.75h0.41c0.46,0,0.78-0.06,0.97-0.19c0.19-0.13,0.29-0.38,0.29-0.75c0-0.19-0.02-0.34-0.07-0.46
		s-0.12-0.22-0.22-0.29c-0.1-0.07-0.23-0.12-0.39-0.15s-0.36-0.04-0.58-0.04h-0.41V32.75z"/>
	<path d="M34.86,29.74c0.44,0,0.83,0.02,1.17,0.04c0.33,0.03,0.62,0.11,0.86,0.23c0.3,0.16,0.53,0.38,0.68,0.66s0.23,0.62,0.23,1
		c0,0.44-0.1,0.82-0.31,1.12c-0.2,0.3-0.5,0.52-0.9,0.66l1.44,2.85H36.4l-1.28-2.68h-0.49v2.68h-1.46v-6.58H34.86z M34.64,32.59
		h0.41c0.22,0,0.41-0.01,0.57-0.03c0.16-0.02,0.29-0.06,0.4-0.13c0.1-0.06,0.18-0.15,0.23-0.26s0.08-0.26,0.08-0.45
		c0-0.19-0.03-0.34-0.08-0.45s-0.13-0.2-0.23-0.27c-0.11-0.06-0.24-0.1-0.4-0.13c-0.16-0.02-0.35-0.03-0.57-0.03h-0.41V32.59z"/>
	<path d="M39.12,32.45c0-0.25,0-0.49,0.01-0.7s0.03-0.42,0.08-0.6c0.04-0.19,0.1-0.36,0.17-0.52s0.18-0.31,0.32-0.45
		c0.4-0.41,0.94-0.61,1.64-0.61c0.71,0,1.26,0.2,1.66,0.61c0.13,0.14,0.24,0.29,0.32,0.45s0.14,0.33,0.18,0.52
		c0.04,0.19,0.07,0.39,0.08,0.6c0.01,0.22,0.01,0.45,0.01,0.7v1.16c0,0.25,0,0.49-0.01,0.7c-0.01,0.22-0.04,0.42-0.08,0.6
		c-0.04,0.19-0.1,0.36-0.18,0.52c-0.08,0.16-0.18,0.31-0.32,0.45c-0.4,0.41-0.95,0.61-1.66,0.61c-0.7,0-1.24-0.2-1.64-0.61
		c-0.14-0.14-0.24-0.29-0.32-0.45c-0.08-0.16-0.13-0.33-0.17-0.52c-0.04-0.19-0.07-0.39-0.08-0.6s-0.01-0.45-0.01-0.7V32.45z
		 M42.11,32.2c0-0.23-0.01-0.43-0.02-0.6s-0.05-0.31-0.1-0.42c-0.05-0.11-0.13-0.2-0.23-0.25c-0.1-0.05-0.24-0.08-0.41-0.08
		c-0.17,0-0.31,0.03-0.41,0.08c-0.1,0.05-0.17,0.14-0.23,0.25c-0.05,0.11-0.08,0.25-0.1,0.42c-0.02,0.17-0.02,0.37-0.02,0.6v1.65
		c0,0.23,0.01,0.43,0.02,0.6c0.01,0.17,0.05,0.31,0.1,0.42c0.05,0.11,0.13,0.2,0.23,0.25c0.1,0.05,0.24,0.08,0.41,0.08
		c0.17,0,0.3-0.03,0.41-0.08c0.1-0.05,0.18-0.14,0.23-0.25c0.05-0.11,0.08-0.25,0.1-0.42s0.02-0.37,0.02-0.6V32.2z"/>
	<path d="M45.68,34.43c0,0.29,0.03,0.51,0.09,0.64c0.06,0.13,0.19,0.2,0.38,0.2c0.2,0,0.33-0.07,0.38-0.2
		c0.06-0.14,0.08-0.35,0.08-0.64v-4.69h1.46v4.86c0,0.64-0.14,1.12-0.42,1.42s-0.73,0.46-1.35,0.46c-0.58,0-1.02-0.14-1.32-0.43
		c-0.3-0.29-0.46-0.71-0.46-1.25V34.2h1.15V34.43z"/>
	<path d="M49.69,29.74h4.44v1.28h-2.98v1.17h2.03v1.28h-2.03v1.57h3.17v1.28h-4.63V29.74z"/>
	<path d="M56.64,31.02h-1.67v-1.28h4.79v1.28h-1.67v5.3h-1.46V31.02z"/>
	<path d="M28.71,47.45c-0.41-0.51-0.72-1.02-0.92-1.54c-0.2-0.52-0.3-1.06-0.3-1.62c0-0.56,0.1-1.1,0.3-1.62s0.51-1.02,0.92-1.53
		h0.6c-0.43,0.56-0.75,1.1-0.96,1.62s-0.32,1.02-0.32,1.53s0.11,1.02,0.32,1.54c0.21,0.52,0.53,1.06,0.96,1.62H28.71z"/>
	<path d="M30.47,47.12c0.1-0.82,0.39-1.46,0.87-1.93c0.19-0.19,0.4-0.38,0.63-0.55c0.23-0.17,0.47-0.36,0.71-0.57
		c0.2-0.17,0.36-0.36,0.46-0.56c0.1-0.2,0.16-0.39,0.16-0.57c0-0.28-0.1-0.52-0.29-0.7c-0.2-0.19-0.44-0.28-0.74-0.28
		c-0.62,0-1.06,0.33-1.3,1l-0.49-0.31c0.38-0.82,0.97-1.22,1.77-1.22c0.25,0,0.48,0.04,0.69,0.12c0.21,0.08,0.38,0.18,0.53,0.32
		c0.15,0.14,0.26,0.3,0.34,0.48c0.08,0.19,0.12,0.39,0.12,0.6c0,0.43-0.15,0.81-0.44,1.16c-0.17,0.2-0.35,0.38-0.54,0.53
		c-0.19,0.15-0.37,0.29-0.54,0.44c-0.14,0.11-0.27,0.21-0.39,0.32c-0.12,0.11-0.23,0.22-0.33,0.33c-0.1,0.12-0.19,0.25-0.26,0.38
		s-0.13,0.29-0.17,0.47H34v0.54H30.47z"/>
	<path d="M35.41,44.34c0-0.95,0.17-1.68,0.5-2.17c0.33-0.5,0.77-0.74,1.31-0.74c0.55,0,0.99,0.25,1.31,0.74
		c0.32,0.5,0.49,1.22,0.49,2.17c0,0.95-0.16,1.68-0.49,2.17c-0.32,0.5-0.76,0.74-1.31,0.74s-0.99-0.25-1.32-0.74
		S35.41,45.3,35.41,44.34z M37.22,41.97c-0.38,0-0.67,0.2-0.87,0.59c-0.2,0.4-0.31,0.99-0.31,1.79s0.1,1.39,0.31,1.79
		c0.2,0.39,0.5,0.59,0.87,0.59s0.67-0.2,0.87-0.59c0.2-0.4,0.31-0.99,0.31-1.78s-0.1-1.39-0.31-1.79
		C37.89,42.17,37.6,41.97,37.22,41.97z"/>
	<path d="M40.48,47.12c0.1-0.82,0.39-1.46,0.87-1.93c0.19-0.19,0.4-0.38,0.63-0.55c0.23-0.17,0.47-0.36,0.71-0.57
		c0.2-0.17,0.36-0.36,0.46-0.56c0.1-0.2,0.16-0.39,0.16-0.57c0-0.28-0.1-0.52-0.29-0.7c-0.2-0.19-0.44-0.28-0.74-0.28
		c-0.62,0-1.06,0.33-1.3,1l-0.49-0.31c0.38-0.82,0.97-1.22,1.77-1.22c0.25,0,0.48,0.04,0.69,0.12c0.21,0.08,0.38,0.18,0.53,0.32
		c0.15,0.14,0.26,0.3,0.34,0.48c0.08,0.19,0.12,0.39,0.12,0.6c0,0.43-0.15,0.81-0.44,1.16c-0.17,0.2-0.35,0.38-0.54,0.53
		c-0.19,0.15-0.37,0.29-0.54,0.44c-0.14,0.11-0.27,0.21-0.39,0.32c-0.12,0.11-0.23,0.22-0.33,0.33c-0.1,0.12-0.19,0.25-0.26,0.38
		s-0.13,0.29-0.17,0.47h2.73v0.54H40.48z"/>
	<path d="M45.42,44.34c0-0.95,0.17-1.68,0.5-2.17c0.33-0.5,0.77-0.74,1.31-0.74c0.55,0,0.99,0.25,1.31,0.74
		c0.32,0.5,0.49,1.22,0.49,2.17c0,0.95-0.16,1.68-0.49,2.17c-0.32,0.5-0.76,0.74-1.31,0.74s-0.99-0.25-1.32-0.74
		S45.42,45.3,45.42,44.34z M47.23,41.97c-0.38,0-0.67,0.2-0.87,0.59c-0.2,0.4-0.31,0.99-0.31,1.79s0.1,1.39,0.31,1.79
		c0.2,0.39,0.5,0.59,0.87,0.59s0.67-0.2,0.87-0.59c0.2-0.4,0.31-0.99,0.31-1.78s-0.1-1.39-0.31-1.79
		C47.9,42.17,47.61,41.97,47.23,41.97z"/>
	<path d="M50.09,47.45c0.43-0.56,0.75-1.1,0.96-1.62c0.21-0.52,0.32-1.03,0.32-1.54s-0.11-1.02-0.32-1.53s-0.53-1.05-0.96-1.62h0.6
		c0.41,0.51,0.72,1.02,0.92,1.53s0.3,1.05,0.3,1.62c0,0.56-0.1,1.1-0.3,1.62c-0.2,0.52-0.5,1.03-0.92,1.54H50.09z"/>
</g>
</svg>
