<?xml version="1.0" encoding="utf-8"?>
<!-- Generator: Adobe Illustrator 23.1.0, SVG Export Plug-In . SVG Version: 6.00 Build 0)  -->
<svg version="1.1" id="Calque_1" xmlns="http://www.w3.org/2000/svg" xmlns:xlink="http://www.w3.org/1999/xlink" x="0px" y="0px"
	 viewBox="0 0 169.16 16.85" style="enable-background:new 0 0 169.16 16.85;" xml:space="preserve">
<g>
	<path d="M4.98,4.58h1.67l1.4,4.91c0.13,0.47,0.23,1.03,0.41,1.68c0.02,0.07,0.08,0.26,0.18,0.26c0.24,0,0.32-0.64,0.38-0.88
		c0.16-0.61,0.17-0.68,0.3-1.13l1.4-4.85h1.69v7.96h-0.8V5.13c0-0.11-0.06-0.18-0.16-0.18c-0.12,0-0.14,0.07-0.2,0.24
		c-0.04,0.08-0.14,0.5-0.19,0.65l-1.92,6.7H8.17L6.48,6.48C6.42,6.26,6.18,5.3,6.12,5.11C6.08,5.02,6.06,4.94,5.95,4.94
		c-0.13,0-0.17,0.07-0.17,0.19v7.41h-0.8V4.58z"/>
	<path d="M15.17,4.46h1.05v1.2h-1.05V4.46z M16.08,6.8v5.75h-0.74V6.8H16.08z"/>
	<path d="M18.12,11.32C18.55,11.7,19.07,12,19.67,12c0.79,0,1.22-0.42,1.22-0.97c0-0.4-0.26-0.71-0.62-0.86
		c-0.14-0.06-1.32-0.53-1.57-0.65c-0.19-0.08-0.82-0.4-0.82-1.27c0-1.02,0.76-1.62,1.75-1.62c0.64,0,1.12,0.18,1.68,0.44l-0.25,0.71
		c-0.43-0.32-0.94-0.52-1.49-0.52c-0.48,0-0.96,0.29-0.96,0.82c0,0.58,0.34,0.72,1.4,1.14c0.91,0.36,1.56,0.64,1.56,1.71
		c0,1.15-0.88,1.68-1.93,1.68c-0.74,0-1.24-0.18-1.83-0.61L18.12,11.32z"/>
	<path d="M23.35,9.57c0,1.04,0.23,2.38,1.54,2.38c0.54,0,0.94-0.23,1.27-0.64l0.55,0.43c-0.52,0.64-1.04,0.88-1.85,0.88
		c-1.52,0-2.32-1.44-2.32-2.82c0-0.7,0.07-1.48,0.52-2.18c0.47-0.73,1.12-0.98,1.76-0.98c1.77,0,1.99,1.55,2.05,2.94H23.35z
		 M26.06,8.99c0-0.22,0.01-0.73-0.24-1.15c-0.24-0.4-0.67-0.55-1.03-0.55c-0.68,0-1.31,0.47-1.42,1.7H26.06z"/>
	<path d="M31.98,9.57c0,1.04,0.23,2.38,1.54,2.38c0.54,0,0.94-0.23,1.27-0.64l0.55,0.43c-0.52,0.64-1.04,0.88-1.85,0.88
		c-1.52,0-2.32-1.44-2.32-2.82c0-0.7,0.07-1.48,0.52-2.18c0.47-0.73,1.12-0.98,1.76-0.98c1.77,0,1.99,1.55,2.05,2.94H31.98z
		 M34.69,8.99c0-0.22,0.01-0.73-0.24-1.15c-0.24-0.4-0.67-0.55-1.03-0.55c-0.68,0-1.31,0.47-1.42,1.7H34.69z"/>
	<path d="M37,7.08l0.76-0.41v1.3c0,0.07,0.06,0.12,0.1,0.08c0.22-0.17,0.76-1.33,1.99-1.33c1.13,0,1.38,0.8,1.38,1.76v4.07h-0.78
		V8.45c0-0.53,0-1.12-0.76-1.12c-0.52,0-0.88,0.25-1.21,0.56c-0.33,0.31-0.56,0.65-0.7,0.94v3.71H37V7.08z"/>
	<path d="M46.16,11.32C46.6,11.7,47.11,12,47.71,12c0.79,0,1.22-0.42,1.22-0.97c0-0.4-0.26-0.71-0.62-0.86
		c-0.14-0.06-1.32-0.53-1.57-0.65c-0.19-0.08-0.82-0.4-0.82-1.27c0-1.02,0.76-1.62,1.75-1.62c0.64,0,1.12,0.18,1.68,0.44L49.1,7.78
		c-0.43-0.32-0.94-0.52-1.49-0.52c-0.48,0-0.96,0.29-0.96,0.82c0,0.58,0.34,0.72,1.4,1.14c0.91,0.36,1.56,0.64,1.56,1.71
		c0,1.15-0.88,1.68-1.93,1.68c-0.74,0-1.24-0.18-1.83-0.61L46.16,11.32z"/>
	<path d="M51.22,4.46h1.05v1.2h-1.05V4.46z M52.13,6.8v5.75h-0.74V6.8H52.13z"/>
	<path d="M53.56,7.05h1.06V5.6l0.79-0.97v2.42h1.27v0.61H55.4v3.44c0,0.41,0,0.89,0.54,0.89c0.37,0,0.89-0.24,1.18-0.44v0.74
		c-0.35,0.22-0.92,0.38-1.33,0.38c-0.88,0-1.18-0.64-1.18-1.43V7.66h-1.06V7.05z"/>
	<path d="M58.32,6.8h0.79v3.98c0,0.56,0.01,1.24,0.88,1.24c0.78,0,1.75-1.27,1.75-1.43V6.8h0.77v5.47l-0.73,0.38v-1.28
		c0-0.02,0-0.07-0.05-0.07c-0.02,0-0.07,0.02-0.12,0.08c-0.46,0.71-0.97,1.25-1.86,1.25c-1.14,0-1.43-0.79-1.43-1.79V6.8z"/>
	<path d="M67.63,8.29c0-0.37,0-0.97-1.1-0.97c-0.65,0-1.15,0.26-1.73,0.62l-0.34-0.76c0.95-0.46,1.4-0.56,2.1-0.56
		c0.26,0,0.88,0.02,1.31,0.35c0.56,0.42,0.56,0.92,0.56,1.24v3.18c0,0.32,0.12,0.46,0.19,0.52c0.11,0.08,0.14,0.08,0.48,0.08v0.66
		c-0.44,0-0.7,0-0.91-0.13c-0.32-0.19-0.47-0.66-0.47-0.86c0-0.08,0-0.1-0.01-0.13c-0.01,0-0.02-0.01-0.04-0.01s-0.02,0-0.04,0.01
		c-0.59,0.66-1.13,1.12-2.05,1.12c-0.7,0-1.01-0.23-1.24-0.47c-0.35-0.37-0.42-0.86-0.42-1.06c0-1.1,0.85-1.59,1.25-1.76
		c0.8-0.35,1.58-0.35,2.45-0.35V8.29z M67.61,9.49c-0.62,0-1.25,0.01-1.82,0.25c-0.59,0.24-1.03,0.67-1.03,1.31
		c0,0.26,0.13,0.95,1.02,0.95c0.73,0,1.6-0.82,1.83-1.09V9.49z"/>
	<path d="M69.55,7.05h1.06V5.6l0.79-0.97v2.42h1.27v0.61H71.4v3.44c0,0.41,0,0.89,0.54,0.89c0.37,0,0.89-0.24,1.18-0.44v0.74
		c-0.35,0.22-0.92,0.38-1.33,0.38c-0.88,0-1.18-0.64-1.18-1.43V7.66h-1.06V7.05z"/>
	<path d="M74.54,4.46h1.05v1.2h-1.05V4.46z M75.46,6.8v5.75h-0.74V6.8H75.46z"/>
	<path d="M79.33,12.65c-1.67,0-2.27-1.55-2.27-3.01c0-1.42,0.65-3,2.3-3c1.73,0,2.34,1.57,2.34,3.07
		C81.71,11.37,81.14,12.65,79.33,12.65z M79.38,7.34c-1.32,0-1.52,1.51-1.52,2.51c0,0.96,0.46,2.11,1.58,2.11
		c1.16,0,1.47-1.22,1.47-2.18C80.91,8.78,80.65,7.34,79.38,7.34z"/>
	<path d="M83.27,7.08l0.76-0.41v1.3c0,0.07,0.06,0.12,0.1,0.08c0.22-0.17,0.76-1.33,1.99-1.33c1.13,0,1.38,0.8,1.38,1.76v4.07h-0.78
		V8.45c0-0.53,0-1.12-0.76-1.12c-0.52,0-0.88,0.25-1.21,0.56c-0.33,0.31-0.56,0.65-0.7,0.94v3.71h-0.78V7.08z"/>
	<path d="M91.42,12.83l3.02-8.42h0.84l-3.05,8.42H91.42z"/>
	<path d="M99.94,4.58h1.67l1.4,4.91c0.13,0.47,0.23,1.03,0.41,1.68c0.02,0.07,0.08,0.26,0.18,0.26c0.24,0,0.32-0.64,0.38-0.88
		c0.16-0.61,0.17-0.68,0.3-1.13l1.4-4.85h1.69v7.96h-0.8V5.13c0-0.11-0.06-0.18-0.16-0.18c-0.12,0-0.14,0.07-0.2,0.24
		c-0.04,0.08-0.14,0.5-0.19,0.65l-1.92,6.7h-0.97l-1.69-6.07c-0.06-0.22-0.3-1.18-0.36-1.37c-0.04-0.08-0.06-0.17-0.17-0.17
		c-0.13,0-0.17,0.07-0.17,0.19v7.41h-0.8V4.58z"/>
	<path d="M113.21,8.29c0-0.37,0-0.97-1.1-0.97c-0.65,0-1.15,0.26-1.73,0.62l-0.34-0.76c0.95-0.46,1.4-0.56,2.1-0.56
		c0.26,0,0.88,0.02,1.31,0.35c0.56,0.42,0.56,0.92,0.56,1.24v3.18c0,0.32,0.12,0.46,0.19,0.52c0.11,0.08,0.14,0.08,0.48,0.08v0.66
		c-0.44,0-0.7,0-0.91-0.13c-0.32-0.19-0.47-0.66-0.47-0.86c0-0.08,0-0.1-0.01-0.13c-0.01,0-0.02-0.01-0.04-0.01s-0.02,0-0.04,0.01
		c-0.59,0.66-1.13,1.12-2.05,1.12c-0.7,0-1.01-0.23-1.24-0.47c-0.35-0.37-0.42-0.86-0.42-1.06c0-1.1,0.85-1.59,1.25-1.76
		c0.8-0.35,1.58-0.35,2.45-0.35V8.29z M113.18,9.49c-0.62,0-1.25,0.01-1.82,0.25c-0.59,0.24-1.03,0.67-1.03,1.31
		c0,0.26,0.13,0.95,1.02,0.95c0.73,0,1.6-0.82,1.83-1.09V9.49z"/>
	<path d="M120.11,7.08v7.54h-0.8v-3.11l-0.02-0.06c-0.01-0.04-0.07-0.04-0.1,0.01c-0.26,0.62-0.89,1.14-1.58,1.14
		c-1.49,0-2.04-1.56-2.04-2.9c0-1.26,0.43-3.05,2-3.05c0.89,0,1.25,0.53,1.69,1.2h0.02c0.04,0,0.05-0.02,0.05-0.06V6.63L120.11,7.08
		z M117.78,7.34c-1.18,0-1.45,1.28-1.45,2.31c0,0.88,0.23,2.28,1.37,2.28c0.84,0,1.63-0.91,1.63-2.34
		C119.33,8.2,118.61,7.34,117.78,7.34z"/>
	<path d="M121.9,6.8h0.79v3.98c0,0.56,0.01,1.24,0.88,1.24c0.78,0,1.75-1.27,1.75-1.43V6.8h0.77v5.47l-0.73,0.38v-1.28
		c0-0.02,0-0.07-0.05-0.07c-0.02,0-0.07,0.02-0.12,0.08c-0.46,0.71-0.97,1.25-1.86,1.25c-1.14,0-1.43-0.79-1.43-1.79V6.8z"/>
	<path d="M128.18,9.57c0,1.04,0.23,2.38,1.54,2.38c0.54,0,0.94-0.23,1.27-0.64l0.55,0.43c-0.52,0.64-1.04,0.88-1.85,0.88
		c-1.52,0-2.32-1.44-2.32-2.82c0-0.7,0.07-1.48,0.52-2.18c0.47-0.73,1.12-0.98,1.76-0.98c1.77,0,1.99,1.55,2.05,2.94H128.18z
		 M130.9,8.99c0-0.22,0.01-0.73-0.24-1.15c-0.24-0.4-0.67-0.55-1.03-0.55c-0.68,0-1.31,0.47-1.42,1.7H130.9z"/>
	<path d="M132.46,7.05h1.06V5.6l0.79-0.97v2.42h1.27v0.61h-1.27v3.44c0,0.41,0,0.89,0.54,0.89c0.37,0,0.89-0.24,1.18-0.44v0.74
		c-0.35,0.22-0.92,0.38-1.33,0.38c-0.88,0-1.18-0.64-1.18-1.43V7.66h-1.06V7.05z"/>
	<path d="M136.45,7.05h1.06V5.6l0.79-0.97v2.42h1.27v0.61h-1.27v3.44c0,0.41,0,0.89,0.54,0.89c0.37,0,0.89-0.24,1.18-0.44v0.74
		c-0.35,0.22-0.92,0.38-1.33,0.38c-0.88,0-1.18-0.64-1.18-1.43V7.66h-1.06V7.05z"/>
	<path d="M141.5,9.57c0,1.04,0.23,2.38,1.54,2.38c0.54,0,0.94-0.23,1.27-0.64l0.55,0.43c-0.52,0.64-1.04,0.88-1.85,0.88
		c-1.52,0-2.32-1.44-2.32-2.82c0-0.7,0.07-1.48,0.52-2.18c0.47-0.73,1.12-0.98,1.76-0.98c1.77,0,1.99,1.55,2.05,2.94H141.5z
		 M144.21,8.99c0-0.22,0.01-0.73-0.24-1.15c-0.24-0.4-0.67-0.55-1.03-0.55c-0.68,0-1.31,0.47-1.42,1.7H144.21z"/>
	<path d="M149.69,11.32c0.43,0.38,0.95,0.68,1.55,0.68c0.79,0,1.22-0.42,1.22-0.97c0-0.4-0.26-0.71-0.62-0.86
		c-0.14-0.06-1.32-0.53-1.57-0.65c-0.19-0.08-0.82-0.4-0.82-1.27c0-1.02,0.76-1.62,1.75-1.62c0.64,0,1.12,0.18,1.68,0.44l-0.25,0.71
		c-0.43-0.32-0.94-0.52-1.49-0.52c-0.48,0-0.96,0.29-0.96,0.82c0,0.58,0.34,0.72,1.4,1.14c0.91,0.36,1.56,0.64,1.56,1.71
		c0,1.15-0.88,1.68-1.93,1.68c-0.74,0-1.24-0.18-1.83-0.61L149.69,11.32z"/>
	<path d="M156.55,12.65c-1.67,0-2.27-1.55-2.27-3.01c0-1.42,0.65-3,2.3-3c1.73,0,2.34,1.57,2.34,3.07
		C158.93,11.37,158.36,12.65,156.55,12.65z M156.6,7.34c-1.32,0-1.52,1.51-1.52,2.51c0,0.96,0.46,2.11,1.58,2.11
		c1.16,0,1.47-1.22,1.47-2.18C158.13,8.78,157.87,7.34,156.6,7.34z"/>
	<path d="M160.49,7.08l0.76-0.41v1.3c0,0.07,0.06,0.12,0.1,0.08c0.22-0.17,0.75-1.33,1.99-1.33c1.13,0,1.38,0.8,1.38,1.76v4.07
		h-0.78V8.45c0-0.53,0-1.12-0.76-1.12c-0.52,0-0.88,0.25-1.21,0.56c-0.33,0.31-0.56,0.65-0.7,0.94v3.71h-0.78V7.08z"/>
</g>
</svg>
